<svg width="140" height="44" viewBox="0 0 140 44" fill="none" xmlns="http://www.w3.org/2000/svg">
<path fill-rule="evenodd" clip-rule="evenodd" d="M86.8491 33.8877C78.7438 39.8806 66.9544 43.0736 56.786 43.0736C42.5403 43.0736 29.7684 37.8175 20.0421 29.0736C19.3053 28.3859 19.9438 27.4526 20.8772 27.9929C31.3403 34.0842 44.2596 37.7192 57.621 37.7192C66.6105 37.7192 76.5333 35.8526 85.6702 31.9719C87.0456 31.4315 88.1754 32.9052 86.8491 33.8877Z" fill="#FF9900"/>
<path fill-rule="evenodd" clip-rule="evenodd" d="M90.2385 30.007C89.207 28.6806 83.3613 29.3684 80.7578 29.7122C79.9719 29.8105 79.8245 29.1228 80.5613 28.6315C85.228 25.3403 92.842 26.3228 93.7262 27.4035C94.6105 28.4842 93.4806 36.1473 89.1087 39.7824C88.421 40.3228 87.7824 40.028 88.0771 39.2912C89.0596 36.835 91.2701 31.3824 90.2385 30.007Z" fill="#FF9900"/>
<path fill-rule="evenodd" clip-rule="evenodd" d="M80.9053 5.54381V2.35083C80.9053 1.8596 81.2491 1.56486 81.6912 1.56486H95.9368C96.3789 1.56486 96.7719 1.90872 96.7719 2.35083V5.05258C96.7719 5.49469 96.3789 6.08416 95.6912 7.06662L88.3228 17.5789C91.0737 17.5298 93.9719 17.9228 96.4281 19.2982C96.9684 19.5929 97.1158 20.0842 97.1649 20.5263V23.9157C97.1649 24.407 96.6737 24.9473 96.1333 24.6526C91.7614 22.3438 85.9158 22.0982 81.1018 24.7017C80.6105 24.9473 80.0702 24.4561 80.0702 23.9649V20.7228C80.0702 20.2315 80.0702 19.3473 80.6105 18.5614L89.1579 6.32978H81.7403C81.2982 6.32978 80.9053 5.98592 80.9053 5.54381ZM28.9825 25.3403H24.6596C24.2667 25.2912 23.9228 24.9964 23.8737 24.6035V2.39995C23.8737 1.95785 24.2667 1.61399 24.7088 1.61399H28.7368C29.1789 1.61399 29.4737 1.95785 29.5228 2.35083V5.24907H29.6211C30.6526 2.44907 32.6667 1.12276 35.3193 1.12276C38.021 1.12276 39.7404 2.44907 40.9193 5.24907C41.9509 2.44907 44.3579 1.12276 46.9123 1.12276C48.7298 1.12276 50.6947 1.8596 51.9228 3.5789C53.2983 5.44556 53.0035 8.14733 53.0035 10.5543V24.6035C53.0035 25.0456 52.6105 25.3894 52.1684 25.3894H47.8947C47.4526 25.3403 47.1088 24.9964 47.1088 24.6035V12.814C47.1088 11.8806 47.207 9.52275 47.0105 8.63854C46.6667 7.16486 45.7333 6.72275 44.4561 6.72275C43.4246 6.72275 42.2947 7.41048 41.8526 8.5403C41.4105 9.67013 41.4596 11.5368 41.4596 12.814V24.6035C41.4596 25.0456 41.0667 25.3894 40.6246 25.3894H36.3018C35.8596 25.3403 35.5158 24.9964 35.5158 24.6035V12.814C35.5158 10.3578 35.9088 6.67363 32.8632 6.67363C29.7684 6.67363 29.8667 10.2105 29.8667 12.814V24.6035C29.8175 24.9964 29.4737 25.3403 28.9825 25.3403ZM109.053 1.12276C115.488 1.12276 118.975 6.62451 118.975 13.6491C118.975 20.428 115.144 25.8315 109.053 25.8315C102.765 25.8315 99.3263 20.3298 99.3263 13.4526C99.2772 6.52627 102.765 1.12276 109.053 1.12276ZM109.053 5.69117C105.86 5.69117 105.663 10.0631 105.663 12.7649C105.663 15.4666 105.614 21.2631 109.004 21.2631C112.344 21.2631 112.54 16.5964 112.54 13.7473C112.54 11.8807 112.442 9.62101 111.902 7.85259C111.411 6.28066 110.428 5.69117 109.053 5.69117ZM127.277 25.3403H122.954C122.512 25.2912 122.168 24.9473 122.168 24.5543V2.3017C122.218 1.90872 122.561 1.56486 123.004 1.56486H127.032C127.425 1.56486 127.719 1.85961 127.818 2.20347V5.59294H127.916C129.144 2.54732 130.814 1.12276 133.811 1.12276C135.726 1.12276 137.642 1.81047 138.87 3.72626C140 5.49468 140 8.49118 140 10.6526V24.6526C139.951 25.0456 139.607 25.3403 139.165 25.3403H134.842C134.449 25.2912 134.105 24.9964 134.056 24.6526V12.5684C134.056 10.1122 134.351 6.57539 131.354 6.57539C130.323 6.57539 129.34 7.26311 128.849 8.34382C128.26 9.71926 128.161 11.0456 128.161 12.5684V24.5543C128.112 24.9964 127.719 25.3403 127.277 25.3403ZM69.5579 14.7298C69.5579 16.4 69.607 17.8245 68.7719 19.3473C68.0842 20.5754 67.0035 21.3122 65.7754 21.3122C64.1053 21.3122 63.1228 20.035 63.1228 18.1684C63.1228 14.4842 66.414 13.7964 69.5579 13.7964V14.7298ZM73.9298 25.2912C73.6351 25.5368 73.2421 25.5859 72.8982 25.3894C71.4737 24.2105 71.1789 23.621 70.393 22.4912C68.0351 24.8982 66.3158 25.635 63.2702 25.635C59.6351 25.635 56.786 23.3754 56.786 18.9052C56.786 15.3684 58.7018 13.0105 61.4035 11.8315C63.7614 10.7999 67.0526 10.6035 69.5579 10.3087V9.76837C69.5579 8.7368 69.6561 7.50873 69.0175 6.62452C68.4772 5.83855 67.4947 5.49468 66.6105 5.49468C64.9404 5.49468 63.4667 6.32978 63.1228 8.0982C63.0246 8.49118 62.7789 8.88416 62.386 8.88416L58.2105 8.44205C57.8667 8.34381 57.4737 8.0982 57.5719 7.55785C58.5544 2.44908 63.1228 0.92627 67.2491 0.92627C69.3614 0.92627 72.1123 1.46662 73.7825 3.08767C75.8947 5.05258 75.6982 7.70522 75.6982 10.5543V17.2842C75.6982 19.2982 76.5333 20.1824 77.3193 21.3122C77.614 21.7052 77.6632 22.1964 77.3193 22.4421C76.386 23.1789 74.814 24.5543 73.9298 25.2912ZM12.8211 14.7298C12.8211 16.4 12.8702 17.8245 12.0351 19.3473C11.3474 20.5754 10.2667 21.3122 9.03859 21.3122C7.36842 21.3122 6.38596 20.035 6.38596 18.1684C6.38596 14.4842 9.6772 13.7964 12.8211 13.7964V14.7298ZM17.1439 25.2912C16.8491 25.5368 16.4561 25.5859 16.1123 25.3894C14.6877 24.2105 14.393 23.621 13.607 22.4912C11.2491 24.8982 9.52982 25.635 6.48421 25.635C2.84912 25.635 0 23.3754 0 18.9052C0 15.3684 1.91579 13.0105 4.61754 11.8315C6.97544 10.7999 10.2667 10.6035 12.7719 10.3087V9.76837C12.7719 8.7368 12.8702 7.50873 12.2316 6.62452C11.6912 5.83855 10.7088 5.49468 9.82456 5.49468C8.15439 5.49468 6.6807 6.32978 6.33684 8.0982C6.23859 8.49118 5.99298 8.88416 5.6 8.88416L1.42456 8.44205C1.0807 8.34381 0.687722 8.0982 0.785968 7.55785C1.76842 2.44908 6.33684 0.92627 10.4632 0.92627C12.5754 0.92627 15.3263 1.46662 16.9965 3.08767C19.1088 5.05258 18.9123 7.70522 18.9123 10.5543V17.2842C18.9123 19.2982 19.7474 20.1824 20.5333 21.3122C20.8281 21.7052 20.8772 22.1964 20.5333 22.4421C19.6 23.1789 18.0281 24.5543 17.1439 25.2912Z" fill="black"/>
</svg>
