<svg width="140" height="38" viewBox="0 0 140 38" fill="none" xmlns="http://www.w3.org/2000/svg">
<path d="M119.509 35.577C121.458 35.766 123.407 35.969 125.351 36.179L129.644 25.5801L133.724 37.1567C135.817 37.4189 137.91 37.6943 139.996 37.9817L132.843 17.6813L139.998 0.0114098H133.938L133.875 0.0982098L130.01 9.64388L126.616 0.0128098H120.632L126.81 17.5431L119.509 35.577H119.509ZM114.983 35.1617V0.0114098H109.002V34.6684C110.997 34.8224 112.993 34.9881 114.983 35.1617ZM70.0527 33.1961C71.6674 33.1961 73.2802 33.2082 74.8902 33.2213V20.3077H82.0755V14.8085H74.8907V5.51714H83.1661V0.0114098H68.8861V33.2007C69.2739 33.2007 69.6635 33.1947 70.0527 33.1961ZM51.4822 33.5321C53.4749 33.4611 55.4694 33.4014 57.4667 33.3529V5.51808H63.0574V0.0128098H45.8915V5.51808H51.4831V33.5321H51.4822ZM5.73767 37.2383V16.2967L12.8198 36.3927C14.9977 36.1482 17.1789 35.9181 19.3662 35.7007V0.0118764H13.6271V21.7039L5.985 0.0118764H0V37.9911H0.0359333C1.932 37.7288 3.8346 37.4796 5.73767 37.2383ZM40.124 5.51668V0.0118764H25.8426V35.1057C30.5942 34.6955 35.3512 34.3515 40.1123 34.0739V28.5639C37.3515 28.7245 34.5963 28.9093 31.8477 29.1151V20.31H39.0329V14.8075H31.8477V5.51668H40.124ZM95.0199 28.3007V0.0100098H89.0125V33.5521C93.7911 33.7276 98.5511 33.9721 103.295 34.2801V28.7669C100.542 28.5891 97.7839 28.4351 95.0199 28.3007Z" fill="#B81D24"/>
</svg>
