<svg width="140" height="34" viewBox="0 0 140 34" fill="none" xmlns="http://www.w3.org/2000/svg">
<path d="M22.0859 18.0006C22.0415 15.2919 23.2114 13.1834 25.5931 11.6741C24.2499 9.72095 22.269 8.62315 19.6495 8.37772C18.7177 8.29022 17.5265 8.51047 16.0774 9.044C14.5186 9.62193 13.641 9.90919 13.4464 9.90919C13.0349 9.90919 12.2449 9.66632 11.0741 9.17675C9.90585 8.68845 8.90921 8.44431 8.08628 8.44431C6.70079 8.46693 5.41177 8.8498 4.22134 9.59291C3.03049 10.3369 2.07823 11.3532 1.36415 12.6392C0.45372 14.2381 0 16.1473 0 18.3664C0 20.3639 0.334634 22.3611 1.00561 24.3599C1.63348 26.2691 2.43591 27.9449 3.40909 29.3863C4.27427 30.6962 5.03488 31.6506 5.68238 32.2507C6.61457 33.1825 7.56598 33.6272 8.54171 33.582C9.16915 33.5589 9.99122 33.3263 11.0092 32.8811C11.961 32.4616 12.9146 32.2503 13.8677 32.2503C14.7551 32.2503 15.6745 32.4603 16.6284 32.8811C17.6887 33.3263 18.5555 33.5478 19.2265 33.5478C20.2227 33.5043 21.1532 33.0711 22.0205 32.2507C22.3223 31.9831 22.6531 31.6173 23.0099 31.1512C23.4219 30.6083 23.8174 30.0532 24.1961 29.4866C24.5116 28.998 24.8096 28.4983 25.0895 27.9884C25.3897 27.4394 25.6554 26.8721 25.8851 26.29C25.9922 26.0459 26.0895 25.7966 26.177 25.5414C26.2632 25.2861 26.3499 25.0262 26.4365 24.7594C25.6354 24.4052 24.9098 23.9036 24.2605 23.2596C22.8332 21.8412 22.1076 20.0869 22.0859 18.0006ZM45.637 23.9361H45.4795L38.8837 8.86303H33.7041V33.1825H38.2183V17.4321H38.4279L43.9399 29.939H47.1057L52.6003 17.4321H52.8107V33.1825H57.3769V8.86303H52.2328L45.637 23.9361ZM17.9926 5.68144C19.1407 4.23833 19.7148 2.68467 19.7148 1.01961V0.687113C19.7148 0.575284 19.7037 0.464735 19.6824 0.35376C18.8808 0.39815 18.0314 0.653821 17.1321 1.11906C16.234 1.58602 15.4926 2.17504 14.907 2.884C13.7384 4.28358 13.1532 5.78089 13.1532 7.37937V7.6948C13.1532 7.79553 13.1643 7.90053 13.1856 8.01236C14.9834 8.18949 16.5857 7.41224 17.9926 5.68144ZM110.136 8.86303H115.21V33.1829H110.136V8.86303ZM130.534 12.7288C133.543 12.7288 135.135 15.0452 135.135 17.5396H140V17.0227C140 12.3195 136.413 8.40034 130.499 8.40034C124.165 8.40034 120.386 12.5692 120.386 19.6785V22.4225C120.386 29.5297 124.13 33.6469 130.481 33.6469C136.553 33.6469 140 29.6722 140 25.2546V24.7202H135.135C135.135 27.2333 133.578 29.3175 130.57 29.3175C127.49 29.3175 125.53 27.1258 125.53 22.4392V19.6972C125.53 15.0269 127.508 12.7288 130.534 12.7288ZM76.7823 24.2203C76.7823 27.4817 74.8752 29.2804 72.0761 29.2804C69.259 29.2804 67.3524 27.4988 67.3524 24.2203V8.86303H62.3128V24.9331C62.3128 30.1191 65.9865 33.6464 72.0752 33.6464C78.1469 33.6464 81.8381 30.1191 81.8381 24.9331V8.86303H76.7823V24.2203ZM98.6249 19.0186L95.0037 18.1999C92.8695 17.753 91.7495 16.8093 91.7495 15.4012C91.7495 13.5313 93.2712 12.3549 95.722 12.3549C98.4862 12.3549 99.8682 13.9406 99.9903 15.6513H104.714C104.662 11.357 101.076 8.36407 95.7387 8.36407C90.6829 8.36407 86.6933 11.0194 86.6933 15.7939C86.6933 19.9273 89.4933 21.8502 92.8524 22.5826L96.4387 23.4192C98.8532 23.9715 100.078 24.7739 100.078 26.4296C100.078 28.3196 98.5728 29.6027 95.7566 29.6027C92.7295 29.6027 91.137 27.9986 90.9979 26.1987H86.1333C86.2046 29.6377 88.4787 33.6464 95.5124 33.6464C101.426 33.6464 105.083 30.7069 105.083 25.9302C105.082 21.5117 102.124 19.7835 98.6249 19.0186Z" fill="#231F20"/>
</svg>
