<svg width="144" height="48" viewBox="0 0 144 48" fill="none" xmlns="http://www.w3.org/2000/svg">
<path d="M143.733 23.6238V19.0297C142.834 19.0657 140.138 19.4323 138.945 20.863V19.3461H133.912V34.6526H138.945V27.4199C139.664 24.0121 142.921 23.6526 143.747 23.6238H143.733ZM98.6546 23.8036C98.1146 23.3206 97.4973 22.9317 96.8285 22.6532C96.2777 22.3848 95.6725 22.247 95.0598 22.2506C94.606 22.2461 94.1567 22.3419 93.7442 22.531C93.5562 22.6073 93.3969 22.7406 93.2885 22.9121C93.1802 23.0836 93.1283 23.2847 93.1402 23.4872C93.1353 23.6926 93.1971 23.894 93.3163 24.0612C93.4356 24.2285 93.6059 24.3525 93.8017 24.4147C94.5041 24.6747 95.2251 24.8814 95.9585 25.033C96.5559 25.1624 97.1424 25.3379 97.7128 25.5578C98.2864 25.7766 98.8243 26.0794 99.3089 26.4565C99.7816 26.8284 100.173 27.2933 100.459 27.8225C100.76 28.414 100.909 29.0714 100.891 29.7349C100.922 30.5452 100.739 31.3494 100.361 32.0664C99.9819 32.7834 99.4207 33.3878 98.7337 33.8186C98.0748 34.2457 97.3441 34.5502 96.5768 34.7173C95.8044 34.9026 95.013 34.9967 94.2187 34.9977C92.9599 34.9978 91.7095 34.7938 90.5161 34.3937C89.3829 34.0413 88.3469 33.431 87.4893 32.6107L89.9768 29.4977C90.5831 30.0515 91.272 30.5075 92.0187 30.8493C92.6721 31.178 93.3938 31.3479 94.1252 31.3454C94.552 31.341 94.9723 31.2402 95.3546 31.0506C95.5489 30.9603 95.7109 30.8127 95.8189 30.6276C95.9268 30.4426 95.9756 30.2289 95.9585 30.0153C95.9612 29.7877 95.8935 29.5647 95.7649 29.3769C95.6362 29.1891 95.4528 29.0455 95.2396 28.9656C94.4898 28.6537 93.7123 28.413 92.9174 28.2467C92.3677 28.1177 91.8272 27.9519 91.2997 27.7506C90.7801 27.5488 90.295 27.2675 89.8618 26.9166C89.448 26.5635 89.1062 26.1339 88.8553 25.6513C88.5746 25.0741 88.4366 24.438 88.4527 23.7964C88.4291 22.9666 88.633 22.1461 89.0422 21.4238C89.4273 20.7738 89.9561 20.2205 90.588 19.8062C91.2156 19.3856 91.9113 19.0767 92.6442 18.8931C93.3812 18.7002 94.1397 18.6011 94.9017 18.5983C96.0542 18.5972 97.1997 18.7792 98.2951 19.1376C99.3409 19.4643 100.301 20.0193 101.106 20.7624L98.6546 23.8036ZM128.11 25.0114C128.104 24.3068 127.849 23.627 127.391 23.0918C127.095 22.7893 126.736 22.5557 126.34 22.4078C125.944 22.2599 125.519 22.2014 125.098 22.2362C124.639 22.2324 124.184 22.3103 123.753 22.4663C123.362 22.6094 122.999 22.8212 122.682 23.0918C122.387 23.3561 122.143 23.673 121.963 24.0264C121.803 24.3331 121.703 24.6674 121.668 25.0114H128.11ZM132.747 27.0892V27.7003C132.759 27.8942 132.759 28.0887 132.747 28.2826H121.647C121.679 28.6935 121.81 29.0905 122.028 29.4402C122.244 29.7911 122.525 30.0984 122.855 30.346C123.199 30.6038 123.583 30.8052 123.991 30.9428C124.409 31.0865 124.849 31.1594 125.292 31.1585C125.994 31.1789 126.69 31.0258 127.319 30.7127C127.849 30.4357 128.308 30.0424 128.664 29.5624L132.165 31.7696C131.435 32.8101 130.443 33.6387 129.289 34.1709C128.016 34.7441 126.631 35.0266 125.234 34.9977C124.126 35.0041 123.025 34.8217 121.977 34.4584C120.989 34.1218 120.077 33.5914 119.296 32.8983C118.519 32.1971 117.904 31.3363 117.491 30.3748C117.032 29.2935 116.806 28.1272 116.83 26.9526C116.815 25.7924 117.032 24.641 117.47 23.5663C117.873 22.6015 118.467 21.7283 119.217 20.9996C119.971 20.2874 120.857 19.7304 121.826 19.3604C122.871 18.9629 123.98 18.7653 125.098 18.7781C126.157 18.7681 127.209 18.9609 128.196 19.3461C129.114 19.7082 129.942 20.2678 130.619 20.9853C131.316 21.7352 131.854 22.618 132.201 23.5807C132.594 24.703 132.786 25.8858 132.769 27.0748L132.747 27.0892ZM72.118 23.4944V18.8715H67.8043V15.4421C67.6965 13.465 66.7618 11.9912 62.9442 11.9912V29.7996C62.9407 30.5132 63.0326 31.2241 63.2174 31.9134C63.3804 32.5189 63.675 33.0811 64.0801 33.5598C64.514 34.0366 65.0602 34.3974 65.669 34.6094C66.5195 34.88 67.4081 35.0111 68.3004 34.9977C69.6003 35.0136 70.8928 34.7994 72.118 34.365V30.267C71.3002 30.4766 70.4603 30.5876 69.6161 30.5977C69.3532 30.6302 69.0864 30.601 68.8368 30.5124C68.5872 30.4238 68.3617 30.2782 68.1782 30.0872C67.8907 29.6204 67.762 29.0731 67.8115 28.5271V23.4944H72.118Z" fill="#008FB4"/>
<path d="M112.487 26.4854L118.167 19.2959H112.157L107.124 25.6514V15.5861C107.031 13.5155 106.132 11.9913 102.257 11.9913V34.6527H107.124V27.3338L112.876 34.6527H118.951L112.487 26.4854ZM86.6338 34.6383V24.5011C86.6338 20.137 83.1685 18.5697 80.0986 18.5697C77.6813 18.4491 75.3034 19.2162 73.4123 20.7266L75.9502 23.8756C76.9721 22.978 78.2491 22.4225 79.6025 22.2867C81.4502 22.2867 81.8312 23.3436 81.8312 24.6952V24.954H80.1704C75.8999 24.954 73.3332 26.8017 73.3332 30.0945C73.3332 33.6893 76.4966 34.6239 80.3502 34.6239L86.6338 34.6383ZM81.8312 31.4534H80.2352C78.9914 31.4534 78.2293 30.9357 78.2293 29.8645C78.2293 28.7932 78.9914 28.1749 80.5155 28.1749H81.8312V31.4534ZM45.215 14.7736C45.215 15.5173 45.5104 16.2305 46.0362 16.7563C46.562 17.2821 47.2752 17.5776 48.0189 17.5776C48.7625 17.5776 49.4757 17.2821 50.0015 16.7563C50.5274 16.2305 50.8228 15.5173 50.8228 14.7736C50.8228 14.03 50.5274 13.3168 50.0015 12.791C49.4757 12.2651 48.7625 11.9697 48.0189 11.9697C47.2752 11.9697 46.562 12.2651 46.0362 12.791C45.5104 13.3168 45.215 14.03 45.215 14.7736ZM45.6895 18.9076H45.481V34.6527H50.5496V22.222C50.4058 20.3096 49.428 18.9076 45.6895 18.9076ZM61.83 23.624V19.0298C60.9385 19.0658 58.2352 19.4325 57.0417 20.8632V19.3462H52.0091V34.6527H57.0417V27.5422C57.0383 27.5016 57.0383 27.4607 57.0417 27.42C57.7607 24.0122 61.0104 23.6527 61.8443 23.624H61.83ZM142.274 32.3449H141.993V32.8769H142.274C142.31 32.8788 142.346 32.8734 142.38 32.8609C142.414 32.8484 142.445 32.8291 142.471 32.8042C142.497 32.7793 142.518 32.7494 142.532 32.7161C142.547 32.6829 142.554 32.647 142.554 32.6109C142.554 32.5747 142.547 32.5389 142.532 32.5056C142.518 32.4724 142.497 32.4424 142.471 32.4175C142.445 32.3926 142.414 32.3733 142.38 32.3608C142.346 32.3483 142.31 32.3429 142.274 32.3449ZM142.554 33.8187L142.209 33.0998H141.993V33.8187H141.677V32.0717H142.353C142.424 32.0697 142.496 32.0823 142.562 32.1086C142.629 32.1349 142.69 32.1744 142.741 32.2248C142.792 32.2752 142.832 32.3353 142.859 32.4017C142.887 32.468 142.9 32.5392 142.899 32.6109C142.9 32.7155 142.868 32.8177 142.807 32.9029C142.746 32.9882 142.66 33.052 142.561 33.0854L142.942 33.8043L142.554 33.8187ZM142.223 31.6619C141.961 31.6489 141.7 31.715 141.476 31.8514C141.251 31.9879 141.072 32.1886 140.963 32.4276C140.853 32.6666 140.818 32.9329 140.861 33.1922C140.904 33.4516 141.024 33.692 141.205 33.8825C141.386 34.0731 141.62 34.2049 141.877 34.2612C142.134 34.3174 142.402 34.2954 142.646 34.198C142.89 34.1006 143.1 33.9323 143.247 33.7148C143.395 33.4972 143.474 33.2404 143.474 32.9775C143.479 32.8089 143.45 32.6409 143.39 32.4834C143.33 32.3258 143.239 32.1817 143.122 32.0595C143.006 31.9372 142.867 31.8391 142.713 31.7709C142.558 31.7026 142.392 31.6656 142.223 31.6619ZM142.223 34.5952C141.903 34.6051 141.586 34.5195 141.314 34.3491C141.043 34.1788 140.827 33.9315 140.696 33.6386C140.566 33.3458 140.525 33.0206 140.579 32.7044C140.633 32.3882 140.78 32.0953 141.002 31.8629C141.223 31.6306 141.508 31.4692 141.821 31.3994C142.134 31.3296 142.461 31.3545 142.76 31.4709C143.059 31.5873 143.317 31.7899 143.5 32.0531C143.684 32.3162 143.785 32.628 143.791 32.9488C143.796 33.3709 143.635 33.7781 143.341 34.0812C143.047 34.3844 142.645 34.5589 142.223 34.5664V34.5952ZM31.332 25.7736L33.5823 19.303L35.8326 25.7736H31.332ZM35.9477 11.9913H31.4254L24.4444 30.4396H21.698C19.8256 30.5189 17.9703 30.0545 16.3562 29.1024C15.7128 28.6896 15.1907 28.1132 14.8433 27.4323C14.4959 26.7514 14.3357 25.9904 14.3791 25.2272V23.0704H12.1503C10.0772 23.0135 8.09193 22.2209 6.54966 20.8344C5.34474 19.5706 4.58714 17.9468 4.3928 16.2115H20.0157C22.8555 16.2115 23.9052 17.5991 24.5594 18.8429C24.8809 19.4668 25.1224 20.1286 25.2784 20.8128L27.2555 15.5861C27.2555 15.5861 25.6019 11.9913 20.0157 11.9913H0V14.1482C0 18.2174 1.20784 21.4815 3.59477 23.8253C5.46844 25.5984 7.8388 26.7572 10.3889 27.1468C11.2876 31.7625 15.5294 34.6383 21.698 34.6383H28.1111L29.549 30.4828H37.5797L39.0176 34.6311H44.5032L35.9477 11.9913Z" fill="#008FB4"/>
</svg>
