<svg width="152" height="48" viewBox="0 0 152 48" fill="none" xmlns="http://www.w3.org/2000/svg">
<path d="M53.4695 30.8425V17.5279C53.4695 17.3669 53.5385 17.229 53.6535 17.114C53.7914 16.999 53.9524 16.93 54.1364 16.953H57.8847C58.9885 16.907 60.0923 17.2749 60.9432 17.9878C61.702 18.6777 62.093 19.7585 62.093 21.2302V21.4142C62.093 22.8859 61.702 23.9897 60.9202 24.6796C60.0463 25.3925 58.9425 25.7834 57.8157 25.7144H55.1482V30.8425C55.1482 31.0265 55.0562 31.1874 54.8953 31.2794C54.5273 31.4864 54.0904 31.4864 53.7225 31.2794C53.5615 31.1874 53.4695 31.0265 53.4695 30.8425ZM55.1252 24.3347H57.8157C58.5286 24.3807 59.2415 24.1277 59.7474 23.6218C60.2533 23.0469 60.5062 22.288 60.4373 21.5062V21.2762C60.5062 20.5174 60.2533 19.7585 59.7474 19.1606C59.2185 18.6777 58.5286 18.4247 57.8157 18.4707H55.1482L55.1252 24.3347Z" fill="#FF6C37"/>
<path d="M67.8879 27.2322V21.2763C67.8879 19.7815 68.2789 18.7007 69.0377 18.0109C70.8774 16.6311 73.4069 16.6311 75.2466 18.0109C76.0285 18.7007 76.4194 19.8045 76.4194 21.2763V27.2322C76.4194 28.7269 76.0285 29.8077 75.2466 30.4976C73.4069 31.9004 70.8774 31.9004 69.0377 30.4976C68.2789 29.8077 67.8879 28.7269 67.8879 27.2322ZM69.5666 27.2322C69.5666 29.0949 70.4175 30.0377 72.1652 30.0377C72.878 30.0837 73.5679 29.8307 74.0968 29.3478C74.6027 28.7729 74.8327 28.0141 74.7867 27.2322V21.2533C74.8557 20.4944 74.6027 19.7356 74.0968 19.1377C73.5679 18.6547 72.878 18.4018 72.1652 18.4478C70.4405 18.4478 69.5896 19.3676 69.5896 21.2533L69.5666 27.2322Z" fill="#FF6C37"/>
<path d="M82.3064 29.3938C82.3064 29.1638 82.3983 28.9568 82.5363 28.7729C82.6513 28.6119 82.8123 28.4969 83.0192 28.4739C83.2032 28.4969 83.3642 28.5889 83.4791 28.7269C83.6631 28.8879 83.8471 29.0718 84.054 29.2788C84.33 29.5317 84.6519 29.7157 84.9969 29.8307C85.4568 30.0147 85.9627 30.0836 86.4456 30.0836C87.1815 30.1296 87.8944 29.8997 88.4693 29.4628C88.9752 29.0028 89.2511 28.313 89.2051 27.6231C89.2281 26.9562 88.9982 26.3353 88.5382 25.8524C88.0783 25.3925 87.5264 25.0475 86.9055 24.8176C86.2617 24.5876 85.6408 24.3347 84.9739 24.0587C84.33 23.7828 83.7781 23.3688 83.3412 22.8169C82.8813 22.1961 82.6283 21.4372 82.6743 20.6553C82.6513 20.0345 82.7893 19.4136 83.0652 18.8387C83.2952 18.3558 83.6631 17.9648 84.123 17.6889C84.56 17.4359 85.0199 17.252 85.5028 17.114C86.0087 16.999 86.5146 16.93 87.0205 16.93C87.8254 16.93 88.6072 17.045 89.3661 17.2749C90.102 17.5279 90.4929 17.8498 90.4929 18.2408C90.4929 18.4477 90.4239 18.6547 90.2859 18.8387C90.1939 19.0226 89.987 19.1606 89.78 19.1606C89.4811 19.0686 89.1821 18.9536 88.8832 18.8157C88.3083 18.5627 87.6874 18.4247 87.0435 18.4477C86.3766 18.4247 85.6868 18.5857 85.1119 18.9306C84.6059 19.2756 84.33 19.8735 84.376 20.4944C84.353 21.0693 84.583 21.6212 85.0199 21.9891C85.5028 22.38 86.0547 22.702 86.6526 22.8859C87.2965 23.1159 87.9404 23.3688 88.5842 23.6678C89.2281 23.9897 89.78 24.4727 90.1939 25.0705C90.6539 25.8064 90.8838 26.6573 90.8608 27.5311C90.8608 28.8879 90.4699 29.9227 89.665 30.6125C88.7912 31.3484 87.6644 31.7163 86.5146 31.6474C85.4798 31.6704 84.445 31.4174 83.5481 30.9115C82.7203 30.3596 82.3064 29.8767 82.3064 29.3938Z" fill="#FF6C37"/>
<path d="M95.8049 17.6887C95.8049 17.5047 95.8509 17.3208 95.9659 17.1828C96.0578 17.0218 96.2188 16.9528 96.4028 16.9528H104.451C104.635 16.9528 104.796 17.0218 104.888 17.1828C105.003 17.3208 105.049 17.5047 105.049 17.6887C105.049 17.8727 105.003 18.0796 104.888 18.2406C104.796 18.4016 104.635 18.4706 104.451 18.4706H101.301V30.8423C101.301 31.0263 101.209 31.1873 101.048 31.2793C100.68 31.4862 100.243 31.4862 99.8752 31.2793C99.7142 31.1873 99.6222 31.0263 99.6222 30.8423V18.4706H96.4258C96.2418 18.4706 96.0808 18.4016 95.9889 18.2406C95.8739 18.0796 95.8049 17.8957 95.8049 17.6887Z" fill="#FF6C37"/>
<path d="M110.706 30.8426V17.8039C110.637 17.413 110.913 17.0451 111.304 16.9761C111.396 16.9531 111.488 16.9531 111.557 16.9761C112.086 16.9761 112.523 17.321 112.891 18.0339L115.995 23.9898L119.123 18.0339C119.514 17.344 119.951 16.9761 120.457 16.9761C120.847 16.9071 121.215 17.183 121.284 17.574C121.307 17.643 121.307 17.7119 121.284 17.7809V30.8196C121.284 31.0036 121.192 31.1645 121.031 31.2565C120.664 31.4635 120.227 31.4635 119.859 31.2565C119.698 31.1645 119.606 31.0036 119.606 30.8196V20.4485L116.616 26.0594C116.524 26.3354 116.271 26.5424 115.972 26.5424C115.696 26.5194 115.443 26.3354 115.351 26.0594L112.362 20.3335V30.8196C112.362 31.0036 112.27 31.1645 112.109 31.2565C111.948 31.3715 111.741 31.4405 111.557 31.4405C111.35 31.4405 111.143 31.3945 110.982 31.2795C110.798 31.2105 110.683 31.0266 110.706 30.8426Z" fill="#FF6C37"/>
<path d="M126.964 30.7506C126.964 30.7046 126.987 30.6356 127.01 30.5896L131.057 17.5509C131.172 17.16 131.517 16.9761 132.069 16.9761C132.621 16.9761 132.966 17.16 133.081 17.5509L137.151 30.6586V30.7736C137.151 30.9805 137.013 31.1645 136.829 31.2565C136.622 31.3945 136.37 31.4634 136.094 31.4404C135.841 31.4634 135.588 31.3255 135.496 31.0725L134.622 28.175H129.425L128.551 31.0725C128.482 31.3255 128.206 31.4864 127.953 31.4634C127.723 31.4634 127.493 31.3945 127.286 31.2565C127.079 31.1645 126.964 30.9805 126.964 30.7506ZM129.839 26.7953H134.277L132.069 19.3906L129.839 26.7953Z" fill="#FF6C37"/>
<path d="M142.877 30.8423V17.5277C142.877 17.1368 143.153 16.9528 143.705 16.9528C143.958 16.9528 144.211 17.0448 144.418 17.2058C144.648 17.4358 144.855 17.7117 144.97 18.0107L149.914 27.6689V17.5277C149.914 17.3438 150.006 17.1828 150.167 17.1138C150.535 16.9069 150.972 16.9069 151.34 17.1138C151.501 17.2058 151.593 17.3668 151.593 17.5277V30.8423C151.593 31.0263 151.501 31.1873 151.34 31.2793C151.156 31.3942 150.972 31.4402 150.765 31.4402C150.305 31.4172 149.891 31.1183 149.73 30.6814L144.533 20.7242V30.8423C144.533 31.0263 144.441 31.1873 144.303 31.2793C143.935 31.4862 143.498 31.4862 143.13 31.2793C142.969 31.1873 142.877 31.0263 142.877 30.8423Z" fill="#FF6C37"/>
<path d="M45.8119 27.1861C47.4216 14.5844 38.5222 3.06345 25.9435 1.45374C13.3647 -0.155974 1.79782 8.74342 0.188112 21.3222C-1.4216 33.9009 7.4778 45.4448 20.0565 47.0775C32.6583 48.6872 44.1792 39.7878 45.8119 27.1861Z" fill="#FF6C37"/>
<path d="M31.3009 16.0326L21.5966 25.7369L18.8601 23.0004C28.4034 13.4571 29.3462 14.2849 31.3009 16.0326Z" fill="white"/>
<path d="M21.5969 25.9669C21.5279 25.9669 21.4819 25.9439 21.4359 25.898L18.6764 23.1614C18.5844 23.0695 18.5844 22.9315 18.6764 22.8395C28.3807 13.1352 29.3925 14.0551 31.4391 15.8948C31.4851 15.9407 31.5081 15.9867 31.5081 16.0557C31.5081 16.1247 31.4851 16.1707 31.4391 16.2167L21.7349 25.898C21.7119 25.9439 21.6429 25.9669 21.5969 25.9669ZM19.1823 23.0005L21.5969 25.415L30.9562 16.0557C29.2545 14.538 28.1047 14.0781 19.1823 23.0005Z" fill="#FF6C37"/>
<path d="M24.379 28.5194L21.7345 25.8749L31.4387 16.1707C34.0373 18.7922 30.151 23.0464 24.379 28.5194Z" fill="white"/>
<path d="M24.3793 28.7494C24.3103 28.7494 24.2643 28.7264 24.2184 28.6804L21.5738 26.0359C21.5278 25.9899 21.5278 25.9439 21.5278 25.8749C21.5278 25.8059 21.5508 25.7599 21.5968 25.7139L31.3011 16.0097C31.3931 15.9177 31.531 15.9177 31.623 16.0097C32.2209 16.5616 32.5429 17.3434 32.5199 18.1483C32.4739 20.7008 29.5764 23.9433 24.5633 28.6804C24.4943 28.7264 24.4253 28.7494 24.3793 28.7494ZM22.0567 25.8749C23.5285 27.3696 24.1494 27.9675 24.3793 28.1975C28.2426 24.5182 31.991 20.7468 32.014 18.1483C32.0369 17.5504 31.807 16.9525 31.4161 16.4926L22.0567 25.8749Z" fill="#FF6C37"/>
<path d="M18.9064 23.0694L20.8611 25.0241C20.907 25.0701 20.907 25.116 20.8611 25.162C20.8381 25.185 20.8381 25.185 20.8151 25.185L16.7678 26.0589C16.5608 26.0819 16.3769 25.9439 16.3309 25.7369C16.3079 25.622 16.3539 25.507 16.4229 25.438L18.7684 23.0924C18.8144 23.0464 18.8834 23.0234 18.9064 23.0694Z" fill="white"/>
<path d="M16.6987 26.2889C16.3537 26.2889 16.1008 26.0129 16.1008 25.668C16.1008 25.507 16.1698 25.3461 16.2847 25.2311L18.6303 22.8855C18.7683 22.7705 18.9523 22.7705 19.0902 22.8855L21.0449 24.8402C21.1829 24.9551 21.1829 25.1621 21.0449 25.3001C20.9989 25.3461 20.9529 25.3691 20.8839 25.3921L16.8366 26.2659C16.7907 26.2659 16.7447 26.2889 16.6987 26.2889ZM18.8373 23.3224L16.5837 25.576C16.5377 25.622 16.5147 25.691 16.5607 25.76C16.5837 25.829 16.6527 25.852 16.7217 25.829L20.516 25.0011L18.8373 23.3224Z" fill="#FF6C37"/>
<path d="M36.4289 10.6519C34.9571 9.22615 32.5886 9.27214 31.1628 10.7669C29.7371 12.2616 29.7831 14.6072 31.2778 16.0329C32.4966 17.2057 34.3362 17.4127 35.785 16.5388L33.1634 13.9173L36.4289 10.6519Z" fill="white"/>
<path d="M33.8533 17.2973C31.6687 17.2973 29.898 15.5266 29.898 13.342C29.898 11.1574 31.6687 9.38672 33.8533 9.38672C34.8651 9.38672 35.854 9.77765 36.5898 10.4905C36.6358 10.5365 36.6588 10.5825 36.6588 10.6515C36.6588 10.7205 36.6358 10.7665 36.5898 10.8125L33.4854 13.9169L35.923 16.3545C36.0149 16.4464 36.0149 16.5844 35.923 16.6764C35.9 16.6994 35.9 16.6994 35.877 16.7224C35.2791 17.0903 34.5662 17.2973 33.8533 17.2973ZM33.8533 9.86963C31.9217 9.86963 30.358 11.4333 30.381 13.365C30.381 15.2967 31.9447 16.8604 33.8763 16.8374C34.4052 16.8374 34.9341 16.7224 35.417 16.4694L33.0025 14.0779C32.9565 14.0319 32.9335 13.9859 32.9335 13.9169C32.9335 13.8479 32.9565 13.8019 33.0025 13.7559L36.0839 10.6745C35.463 10.1456 34.6812 9.86963 33.8533 9.86963Z" fill="#FF6C37"/>
<path d="M36.4983 10.7207L36.4523 10.6747L33.1634 13.9173L35.7624 16.5157C36.0153 16.3547 36.2683 16.1707 36.4753 15.9638C37.947 14.515 37.947 12.1695 36.4983 10.7207Z" fill="white"/>
<path d="M35.7855 16.7685C35.7165 16.7685 35.6705 16.7455 35.6245 16.6995L33.0025 14.0779C32.9565 14.0319 32.9335 13.9859 32.9335 13.9169C32.9335 13.8479 32.9565 13.8019 33.0025 13.7559L36.2684 10.4907C36.3604 10.3987 36.4979 10.3985 36.5898 10.4905L36.6593 10.5366C38.2001 12.0774 38.2001 14.5609 36.6823 16.1246C36.4524 16.3546 36.1994 16.5616 35.9235 16.7225C35.8545 16.7455 35.8085 16.7685 35.7855 16.7685ZM33.4854 13.9169L35.8085 16.2396C35.9925 16.1246 36.1764 15.9637 36.3144 15.8257C37.6252 14.5149 37.6941 12.3763 36.4294 10.9966L33.4854 13.9169Z" fill="#FF6C37"/>
<path d="M31.6921 16.4466C31.1402 15.8947 30.2433 15.8947 29.6914 16.4466L21.022 25.116L22.4707 26.5648L31.6461 18.5162C32.244 18.0103 32.2899 17.1135 31.784 16.5156C31.738 16.4926 31.7151 16.4696 31.6921 16.4466Z" fill="white"/>
<path d="M22.4476 26.7948C22.3786 26.7948 22.3326 26.7718 22.2866 26.7258L20.8379 25.2771C20.7459 25.1851 20.7459 25.0471 20.8379 24.9552L29.5073 16.2857C30.1512 15.6418 31.186 15.6418 31.8299 16.2857C32.4738 16.9296 32.4738 17.9644 31.8299 18.6083C31.8069 18.6313 31.7839 18.6543 31.7609 18.6773L22.5856 26.7258C22.5626 26.7718 22.5166 26.7948 22.4476 26.7948ZM21.3438 25.1161L22.4706 26.2429L31.485 18.3324C31.9909 17.9184 32.0369 17.1596 31.623 16.6537C31.209 16.1477 30.4502 16.1018 29.9443 16.5157C29.9213 16.5387 29.8983 16.5617 29.8523 16.5847L21.3438 25.1161Z" fill="#FF6C37"/>
<path d="M14.3763 34.9814C14.2843 35.0274 14.2383 35.1193 14.2613 35.2113L14.6522 36.867C14.7442 37.097 14.6063 37.3729 14.3533 37.4419C14.1693 37.5109 13.9624 37.4419 13.8474 37.3039L11.3178 34.7974L19.5734 26.5419L22.4249 26.5879L24.3565 28.5195C23.8966 28.9105 21.1141 31.601 14.3763 34.9814Z" fill="white"/>
<path d="M14.192 37.6717C14.008 37.6717 13.8241 37.6027 13.7091 37.4647L11.2026 34.9582C11.1566 34.9122 11.1336 34.8662 11.1336 34.7972C11.1336 34.7282 11.1566 34.6822 11.2026 34.6362L19.4581 26.3807C19.5041 26.3347 19.573 26.3117 19.619 26.3117L22.4705 26.3577C22.5395 26.3577 22.5855 26.3807 22.6315 26.4267L24.5632 28.3584C24.6091 28.4044 24.6321 28.4734 24.6321 28.5423C24.6321 28.6113 24.6091 28.6573 24.5402 28.7033L24.3792 28.8413C21.9416 30.9799 18.6302 33.1185 14.514 35.1651L14.9049 36.7979C14.9739 37.0968 14.8359 37.4187 14.56 37.5797C14.422 37.6487 14.307 37.6717 14.192 37.6717ZM11.6625 34.7972L14.031 37.1428C14.1 37.2578 14.238 37.3038 14.353 37.2348C14.468 37.1658 14.514 37.0278 14.445 36.9128L14.054 35.2571C14.008 35.0502 14.1 34.8662 14.284 34.7742C18.3543 32.7276 21.6427 30.612 24.0572 28.5193L22.3555 26.8177L19.711 26.7717L11.6625 34.7972Z" fill="#FF6C37"/>
<path d="M9.36289 36.775L11.3405 34.7974L14.284 37.7409L9.59285 37.4189C9.38589 37.3959 9.24792 37.212 9.27091 37.005C9.27091 36.913 9.29391 36.821 9.36289 36.775Z" fill="white"/>
<path d="M14.2842 37.9477L9.57008 37.6258C9.22515 37.6028 8.99519 37.3038 9.01818 36.9589C9.04118 36.8209 9.08717 36.683 9.20215 36.591L11.1798 34.6133C11.2718 34.5213 11.4098 34.5213 11.5017 34.6133L14.4452 37.5568C14.5142 37.6258 14.5372 37.7178 14.4912 37.8098C14.4452 37.9017 14.3762 37.9477 14.2842 37.9477ZM11.3408 35.1192L9.52409 36.9359C9.45511 36.9819 9.45511 37.0969 9.52409 37.1429C9.54709 37.1659 9.57008 37.1889 9.61608 37.1889L13.6863 37.4648L11.3408 35.1192Z" fill="#FF6C37"/>
<path d="M18.7683 27.5996C18.6303 27.5996 18.5383 27.4846 18.5383 27.3697C18.5383 27.3007 18.5613 27.2547 18.6073 27.2087L20.8379 24.9781C20.9299 24.8861 21.0678 24.8861 21.1598 24.9781L22.6086 26.4268C22.6775 26.4958 22.7005 26.5648 22.6776 26.6568C22.6546 26.7258 22.5856 26.7948 22.4936 26.8178L18.8142 27.5996C18.7912 27.5996 18.7683 27.5996 18.7683 27.5996ZM20.9989 25.461L19.4811 26.9787L21.9647 26.4498L20.9989 25.461Z" fill="#FF6C37"/>
<path d="M22.4249 26.5879L19.8951 27.1398C19.7112 27.1858 19.5272 27.0708 19.4812 26.8868C19.4582 26.7719 19.4812 26.6569 19.5732 26.5649L20.9759 25.1622L22.4249 26.5879Z" fill="white"/>
<path d="M19.8492 27.3697C19.5272 27.3697 19.2743 27.1167 19.2743 26.7948C19.2743 26.6338 19.3432 26.4958 19.4352 26.3808L20.8379 24.9781C20.9299 24.8861 21.0678 24.8861 21.1598 24.9781L22.6086 26.4268C22.6775 26.4958 22.7005 26.5648 22.6776 26.6568C22.6546 26.7258 22.5856 26.7948 22.4936 26.8178L19.9641 27.3697C19.9181 27.3697 19.8722 27.3697 19.8492 27.3697ZM20.9989 25.461L19.7572 26.7028C19.7112 26.7488 19.7112 26.7948 19.7342 26.8407C19.7572 26.8867 19.8032 26.9097 19.8722 26.9097L21.9878 26.4498L20.9989 25.461Z" fill="#FF6C37"/>
<path d="M36.5213 12.9284C36.4753 12.7904 36.3144 12.7214 36.1764 12.7674C36.0384 12.8134 35.9694 12.9744 36.0154 13.1124C36.0154 13.1354 36.0384 13.1584 36.0384 13.1814C36.1764 13.4573 36.1304 13.8022 35.9464 14.0552C35.8544 14.1702 35.8774 14.3311 35.9694 14.4231C36.0844 14.5151 36.2454 14.4921 36.3374 14.3771C36.6823 13.9402 36.7513 13.3883 36.5213 12.9284Z" fill="#FF6C37"/>
</svg>
