<svg width="128" height="48" viewBox="0 0 128 48" fill="none" xmlns="http://www.w3.org/2000/svg">
<path fill-rule="evenodd" clip-rule="evenodd" d="M99.5917 31.6179C102.891 31.6179 105.574 28.9879 105.574 25.7553C105.574 22.5226 102.891 19.8926 99.5917 19.8926C96.2933 19.8926 93.6095 22.5226 93.6095 25.7553C93.6095 28.9879 96.2933 31.6179 99.5917 31.6179ZM105.574 11.1855H105.736H108.408V34.4152H105.574V32.0958C103.938 33.5815 101.829 34.3953 99.5917 34.3953C94.7307 34.3953 90.7757 30.5194 90.7757 25.7553C90.7757 20.9909 94.7307 17.1151 99.5917 17.1151C101.829 17.1151 103.938 17.9289 105.574 19.4147V11.1855ZM40.8164 31.5156C44.115 31.5156 46.7986 28.8856 46.7986 25.6529C46.7986 22.4203 44.115 19.7904 40.8164 19.7904C37.5177 19.7904 34.8341 22.4203 34.8341 25.6529C34.8341 28.8856 37.5177 31.5156 40.8164 31.5156ZM34.8341 19.3127C36.4697 17.8269 38.5793 17.013 40.8164 17.013C45.6776 17.013 49.6327 20.8889 49.6327 25.6529C49.6327 30.4171 45.6776 34.293 40.8164 34.293C38.5793 34.293 36.4697 33.4793 34.8341 31.9933V40.2226H32V16.993H34.8341V19.3127ZM55.0402 24.3039C55.678 21.6785 58.0547 19.7934 60.7656 19.7934C63.4412 19.7934 65.6824 21.6383 66.2797 24.3039H55.0402ZM60.7656 16.993C55.9772 16.993 52.0817 20.9009 52.0817 25.7041C52.0817 30.5074 55.9772 34.4152 60.7656 34.4152C63.4471 34.4152 65.9081 33.4081 67.5188 31.6523L68.3556 30.7396L68.4634 30.6218L68.3461 30.5132L66.5268 28.8346L66.4095 28.7261L66.301 28.8439L65.4643 29.7567C64.397 30.9202 62.6406 31.6149 60.7656 31.6149C58.0547 31.6149 55.6782 29.7298 55.0402 27.1042H69.2243V25.7041C69.2243 20.8193 65.5087 16.993 60.7656 16.993ZM125.166 25.7041C125.166 28.9633 122.482 31.6149 119.183 31.6149C115.885 31.6149 113.201 28.9633 113.201 25.7041C113.201 22.4448 115.885 19.7933 119.183 19.7933C122.482 19.7933 125.166 22.4448 125.166 25.7041ZM119.183 16.993C114.322 16.993 110.367 20.9007 110.367 25.7041C110.367 30.5074 114.322 34.4152 119.183 34.4152C124.045 34.4152 128 30.5074 128 25.7041C128 20.9007 124.045 16.993 119.183 16.993ZM79.7547 16.993C77.7855 16.993 75.9093 17.7429 74.4326 19.1125V16.993H71.6735V34.4152H74.4326V25.5243C74.4326 22.3523 76.8201 19.7715 79.7547 19.7715C82.6898 19.7715 85.0779 22.3523 85.0779 25.5243V34.4152H87.8364V25.5243C87.8364 20.8202 84.211 16.993 79.7547 16.993Z" fill="#1A2022"/>
<path fill-rule="evenodd" clip-rule="evenodd" d="M0 27.7782H13.3333V40.8153L26.6667 27.7782V14.7412H13.3333L0 27.7782Z" fill="#FF4876"/>
</svg>
