<svg width="140" height="42" viewBox="0 0 140 42" fill="none" xmlns="http://www.w3.org/2000/svg">
<path d="M20.9948 0.00512695C9.39992 0.00512695 0 9.40479 0 20.9996C0 32.5957 9.39992 41.9949 20.9948 41.9949C32.5901 41.9949 41.9895 32.5957 41.9895 20.9996C41.9895 9.40553 32.5906 0.006129 20.9945 0.006129L20.9948 0.00512695ZM30.6228 30.2852C30.2458 30.9037 29.44 31.0975 28.8235 30.7207C23.8934 27.7075 17.6879 27.0268 10.3799 28.6963C9.67568 28.8577 8.97371 28.4162 8.81327 27.7122C8.65206 27.008 9.09154 26.306 9.79753 26.1456C17.795 24.3172 24.655 25.1042 30.1888 28.4857C30.8056 28.8642 31.0011 29.669 30.6226 30.2857L30.6228 30.2852ZM33.1925 24.5694C32.7177 25.3398 31.7104 25.5815 30.941 25.1084C25.2988 21.6402 16.6954 20.6356 10.0204 22.6618C9.15472 22.9233 8.2404 22.4354 7.97766 21.5712C7.71693 20.7056 8.20506 19.793 9.06923 19.5297C16.6939 17.2163 26.1725 18.3369 32.6533 22.3194C33.4229 22.7932 33.6661 23.801 33.1923 24.5697L33.1925 24.5694ZM33.4132 18.6167C26.6456 14.5976 15.4827 14.2281 9.02233 16.1889C7.98493 16.5035 6.88784 15.9178 6.57346 14.8804C6.25907 13.8425 6.84422 12.7462 7.88238 12.4308C15.2985 10.1795 27.6269 10.6144 35.4173 15.2392C36.3504 15.793 36.6565 16.9981 36.1034 17.93C35.5519 18.8631 34.3435 19.1707 33.4134 18.6167H33.4132ZM57.1198 19.3868C53.4948 18.5224 52.8495 17.9157 52.8495 16.6409C52.8495 15.4365 53.9835 14.626 55.6697 14.626C57.3043 14.626 58.9251 15.2414 60.6244 16.5085C60.6758 16.5469 60.7402 16.5621 60.8036 16.5521C60.8671 16.5426 60.9232 16.5078 60.9603 16.4554L62.7303 13.9603C62.803 13.8576 62.7832 13.7159 62.6852 13.6374C60.6628 12.0146 58.3854 11.2257 55.7234 11.2257C51.8094 11.2257 49.0754 13.5745 49.0754 16.9352C49.0754 20.5391 51.4338 21.8152 55.5093 22.8002C58.978 23.5992 59.5634 24.2686 59.5634 25.4652C59.5634 26.7912 58.3796 27.6155 56.4745 27.6155C54.3586 27.6155 52.6327 26.9027 50.702 25.2308C50.6541 25.1894 50.5884 25.1706 50.5278 25.1741C50.4638 25.1794 50.4054 25.209 50.3648 25.2579L48.3802 27.6197C48.297 27.7178 48.3075 27.8642 48.4038 27.9489C50.6501 29.9543 53.4129 31.0135 56.3943 31.0135C60.6119 31.0135 63.3373 28.7091 63.3373 25.1423C63.3448 22.1313 61.5423 20.4641 57.1273 19.3901L57.1198 19.3868ZM72.8791 15.8118C71.051 15.8118 69.5515 16.5318 68.315 18.0072V16.3465C68.315 16.2154 68.2087 16.1086 68.0778 16.1086H64.832C64.7009 16.1086 64.5948 16.2154 64.5948 16.3465V34.7989C64.5948 34.93 64.7008 35.0368 64.832 35.0368H68.0778C68.2087 35.0368 68.315 34.93 68.315 34.7989V28.9743C69.5517 30.3622 71.0515 31.0403 72.8791 31.0403C76.2759 31.0403 79.7146 28.4255 79.7146 23.427C79.7196 18.4271 76.2799 15.8115 72.8829 15.8115L72.8791 15.8118ZM75.9402 23.427C75.9402 25.9724 74.3723 27.7486 72.1272 27.7486C69.9077 27.7486 68.2335 25.8916 68.2335 23.427C68.2335 20.9625 69.9077 19.1053 72.1272 19.1053C74.3359 19.1051 75.9405 20.9222 75.9405 23.4267L75.9402 23.427ZM88.5281 15.8118C84.1535 15.8118 80.7264 19.1803 80.7264 23.4813C80.7264 27.7356 84.13 31.0687 88.4744 31.0687C92.8645 31.0687 96.3022 27.7115 96.3022 23.4269C96.3022 19.1572 92.8876 15.8123 88.5278 15.8123L88.5281 15.8118ZM88.5281 27.7739C86.2013 27.7739 84.4471 25.9044 84.4471 23.4257C84.4471 20.9364 86.1406 19.1301 88.4744 19.1301C90.8163 19.1301 92.5822 20.9996 92.5822 23.4801C92.5822 25.9688 90.8774 27.7739 88.5283 27.7739H88.5281ZM105.644 16.1086H102.072V12.4569C102.072 12.326 101.966 12.2192 101.835 12.2192H98.5896C98.4582 12.2192 98.3517 12.326 98.3517 12.4569V16.1086H96.791C96.6604 16.1086 96.5546 16.2154 96.5546 16.3466V19.1361C96.5546 19.267 96.6604 19.3741 96.791 19.3741H98.3517V26.5921C98.3517 29.509 99.8035 30.988 102.667 30.988C103.831 30.988 104.797 30.7475 105.707 30.2313C105.781 30.19 105.827 30.1103 105.827 30.0255V27.369C105.827 27.2871 105.785 27.2096 105.714 27.1667C105.644 27.1223 105.556 27.1201 105.483 27.1559C104.858 27.4706 104.254 27.6157 103.578 27.6157C102.536 27.6157 102.072 27.1429 102.072 26.0832V19.3753H105.644C105.775 19.3753 105.88 19.2685 105.88 19.1374V16.3481C105.885 16.217 105.78 16.1102 105.647 16.1102L105.644 16.1086ZM118.089 16.1229V15.6744C118.089 14.3549 118.595 13.7665 119.729 13.7665C120.406 13.7665 120.949 13.9009 121.558 14.104C121.633 14.1276 121.711 14.1158 121.772 14.0709C121.835 14.026 121.87 13.9541 121.87 13.8779V11.1427C121.87 11.0381 121.803 10.9456 121.702 10.9148C121.059 10.7235 120.236 10.5272 119.005 10.5272C116.007 10.5272 114.422 12.2154 114.422 15.4076V16.0946H112.862C112.732 16.0946 112.624 16.2014 112.624 16.3322V19.1361C112.624 19.267 112.732 19.374 112.862 19.374H114.422V30.5076C114.422 30.6387 114.528 30.7455 114.659 30.7455H117.904C118.036 30.7455 118.142 30.6387 118.142 30.5076V19.3748H121.173L125.815 30.5056C125.288 31.6751 124.77 31.9078 124.062 31.9078C123.491 31.9078 122.888 31.7371 122.273 31.4001C122.215 31.3683 122.146 31.363 122.084 31.3823C122.022 31.4041 121.97 31.4502 121.943 31.5104L120.843 33.9239C120.791 34.038 120.836 34.1719 120.945 34.2311C122.094 34.8531 123.131 35.1185 124.412 35.1185C126.809 35.1185 128.133 34.0022 129.301 30.9987L134.932 16.4478C134.961 16.3746 134.952 16.2919 134.907 16.227C134.863 16.1625 134.791 16.1237 134.712 16.1237H131.333C131.232 16.1237 131.141 16.1881 131.108 16.2831L127.647 26.1704L123.855 16.2766C123.821 16.1846 123.732 16.1237 123.634 16.1237H118.088L118.089 16.1229ZM110.873 16.1086H107.628C107.496 16.1086 107.39 16.2154 107.39 16.3466V30.5076C107.39 30.6387 107.496 30.7455 107.628 30.7455H110.873C111.004 30.7455 111.111 30.6387 111.111 30.5076V16.3475C111.111 16.3163 111.105 16.2853 111.093 16.2564C111.081 16.2274 111.064 16.2012 111.042 16.1791C111.02 16.157 110.993 16.1394 110.964 16.1275C110.935 16.1156 110.904 16.1095 110.873 16.1096L110.873 16.1086ZM109.269 9.66077C107.983 9.66077 106.94 10.7017 106.94 11.9876C106.94 13.2742 107.983 14.3164 109.269 14.3164C110.554 14.3164 111.597 13.2742 111.597 11.9876C111.597 10.7019 110.554 9.66077 109.27 9.66077H109.269ZM137.704 20.6617C136.419 20.6617 135.42 19.63 135.42 18.3773C135.42 17.1245 136.432 16.0811 137.716 16.0811C139 16.0811 140 17.1125 140 18.3642C140 19.617 138.987 20.6617 137.704 20.6617H137.704ZM137.716 16.3082C136.546 16.3082 135.661 17.2383 135.661 18.3773C135.661 19.5157 136.54 20.4333 137.705 20.4333C138.874 20.4333 139.761 19.5039 139.761 18.3642C139.761 17.2258 138.881 16.3082 137.717 16.3082H137.716ZM138.223 18.5991L138.869 19.5037H138.324L137.742 18.6738H137.242V19.5037H136.786V17.1059H137.856C138.413 17.1059 138.779 17.391 138.779 17.8708C138.781 18.2639 138.553 18.5041 138.225 18.5991L138.223 18.5991ZM137.837 17.5173H137.242V18.2757H137.837C138.134 18.2757 138.311 18.1306 138.311 17.8962C138.311 17.6495 138.133 17.5174 137.837 17.5174L137.837 17.5173Z" fill="#2EBD59"/>
</svg>
