<svg width="161" height="48" viewBox="0 0 161 48" fill="none" xmlns="http://www.w3.org/2000/svg">
<path d="M10.3486 14.8497L9.01074 19.7738L16.6683 14.8217L11.6601 33.5072L16.7464 33.5114L24.1448 5.91211" fill="#3395FF"/>
<path d="M2.10656 25.6566L0 33.512H10.4249L14.6907 17.5319L2.10656 25.6566ZM38.319 18.7406C38.0642 19.6877 37.5732 20.3834 36.841 20.8276C36.1105 21.271 35.0853 21.4936 33.7619 21.4936H29.5572L31.0335 15.9893H35.2382C36.5598 15.9893 37.4679 16.2102 37.9605 16.6604C38.4532 17.1106 38.5721 17.7986 38.319 18.75V18.7406ZM42.6723 18.631C43.2074 16.6434 42.9865 15.1144 42.008 14.0442C41.0312 12.9824 39.3171 12.4473 36.8707 12.4473H27.4872L21.8386 33.5214H26.3974L28.6738 25.0272H31.6638C32.3348 25.0272 32.8632 25.1376 33.2488 25.3499C33.6353 25.5708 33.8621 25.953 33.9317 26.5051L34.7455 33.5214H39.6296L38.838 26.9808C38.6766 25.5198 38.0081 24.6619 36.8334 24.4071C38.3309 23.9739 39.5855 23.2519 40.5963 22.2496C41.6 21.2546 42.3172 20.0075 42.6723 18.6395V18.631ZM53.7538 25.9785C53.3715 27.4055 52.7855 28.4843 51.9929 29.2403C51.1996 29.9963 50.2516 30.37 49.1457 30.37C48.0194 30.37 47.2557 30.0048 46.8523 29.2658C46.4479 28.5268 46.4343 27.4565 46.8098 26.055C47.1852 24.6534 47.7841 23.5577 48.608 22.7677C49.4319 21.9777 50.3952 21.5828 51.5011 21.5828C52.6054 21.5828 53.3614 21.965 53.7436 22.7235C54.1343 23.4855 54.1428 24.5753 53.7606 25.9938L53.7538 25.9785ZM55.7516 18.5206L55.1808 20.6527C54.9345 19.8882 54.4563 19.2766 53.7495 18.8179C53.0411 18.3677 52.1645 18.1384 51.1189 18.1384C49.8363 18.1384 48.6046 18.4696 47.4239 19.1322C46.2432 19.7947 45.2069 20.7291 44.3235 21.9353C43.4401 23.1414 42.7946 24.509 42.3784 26.0465C41.9706 27.5924 41.8857 28.943 42.132 30.1152C42.3869 31.2959 42.922 32.1963 43.7459 32.8248C44.5784 33.4619 45.6401 33.7762 46.9397 33.7762C47.9724 33.7814 48.9935 33.558 49.9297 33.1221C50.8553 32.7046 51.6786 32.0901 52.3421 31.3214L51.7475 33.5434H56.1559L60.1813 18.5283H55.7644L55.7516 18.5206ZM76.023 18.5206H63.2027L62.3066 21.8673H69.7662L59.9044 30.387L59.0618 33.5298H72.2958L73.1919 30.1831H65.1989L75.2118 21.536L76.023 18.5206ZM87.3075 25.953C86.9109 27.431 86.3222 28.5421 85.545 29.2658C84.7678 29.9963 83.8266 30.3615 82.7215 30.3615C80.4111 30.3615 79.6517 28.892 80.44 25.953C80.8307 24.492 81.4219 23.3937 82.2119 22.6539C83.0018 21.9115 83.9591 21.5411 85.0846 21.5411C86.1889 21.5411 86.9346 21.9089 87.3186 22.6496C87.7025 23.3886 87.6991 24.4903 87.3075 25.9513V25.953ZM89.8881 19.0855C88.873 18.4535 87.5777 18.1375 85.9977 18.1375C84.3983 18.1375 82.9177 18.4518 81.5553 19.0804C80.1985 19.705 79.006 20.6375 78.0727 21.8036C77.1128 22.9843 76.4222 24.3689 75.9984 25.9488C75.5822 27.5228 75.5312 28.9048 75.854 30.088C76.1768 31.2687 76.8563 32.1776 77.8756 32.8061C78.9034 33.4398 80.2115 33.7549 81.8169 33.7549C83.3968 33.7549 84.8663 33.4373 86.2169 32.8053C87.5675 32.1699 88.7227 31.2678 89.6825 30.0787C90.6423 28.8946 91.3304 27.5134 91.7551 25.9335C92.1798 24.3536 92.2308 22.9741 91.908 21.7883C91.5852 20.6076 90.9142 19.6988 89.9034 19.0659L89.8881 19.0855ZM105.626 22.5316L106.756 18.4459C106.374 18.2505 105.872 18.1486 105.244 18.1486C104.233 18.1486 103.265 18.3983 102.33 18.9045C101.527 19.3344 100.844 19.9408 100.266 20.7002L100.852 18.5002L99.5723 18.5053H96.4294L92.3777 33.5146H96.8482L98.9505 25.6685C99.2563 24.5277 99.8067 23.6299 100.601 22.9928C101.391 22.3532 102.376 22.033 103.565 22.033C104.296 22.033 104.975 22.2003 105.621 22.5341L105.626 22.5316ZM118.065 26.0252C117.683 27.4268 117.105 28.497 116.315 29.236C115.525 29.9784 114.574 30.3488 113.47 30.3488C112.365 30.3488 111.609 29.975 111.21 29.2275C110.802 28.4758 110.794 27.3928 111.176 25.9692C111.558 24.5464 112.145 23.4549 112.951 22.6989C113.758 21.937 114.71 21.5564 115.814 21.5564C116.901 21.5564 117.632 21.9472 118.023 22.7371C118.413 23.5271 118.422 24.6228 118.046 26.0244L118.065 26.0252ZM121.172 19.1101C120.344 18.4476 119.286 18.1163 118.004 18.1163C116.88 18.1163 115.809 18.3711 114.793 18.8859C113.778 19.3998 112.954 20.1005 112.321 20.9873L112.337 20.8854L113.087 18.4985H108.721L107.608 22.6522L107.574 22.7966L102.987 39.9073H107.463L109.774 31.2942C110.003 32.0604 110.47 32.6617 111.184 33.0966C111.897 33.5298 112.778 33.7447 113.826 33.7447C115.125 33.7447 116.365 33.4305 117.542 32.8019C118.722 32.1716 119.742 31.2644 120.608 30.0922C121.475 28.92 122.118 27.561 122.528 26.0235C122.944 24.4835 123.029 23.11 122.791 21.9081C122.549 20.7045 122.013 19.7727 121.186 19.1135L121.172 19.1101ZM136.021 25.9641C135.639 27.3826 135.053 28.4699 134.263 29.2173C133.473 29.9699 132.521 30.3445 131.417 30.3445C130.287 30.3445 129.523 29.9793 129.124 29.2403C128.716 28.5013 128.707 27.431 129.081 26.0295C129.455 24.6279 130.051 23.5322 130.875 22.7422C131.699 21.9523 132.663 21.5581 133.769 21.5581C134.873 21.5581 135.621 21.9404 136.012 22.6964C136.402 23.4549 136.405 24.5447 136.024 25.9666L136.021 25.9641ZM138.017 18.5019L137.445 20.634C137.199 19.8652 136.723 19.2537 136.018 18.7992C135.305 18.3456 134.43 18.1197 133.385 18.1197C132.102 18.1197 130.864 18.451 129.682 19.1135C128.501 19.7761 127.465 20.7053 126.581 21.9081C125.698 23.1109 125.052 24.4818 124.636 26.0193C124.224 27.5627 124.143 28.9158 124.39 30.0931C124.639 31.2653 125.175 32.1708 126.004 32.8027C126.831 33.4313 127.898 33.749 129.197 33.749C130.242 33.749 131.24 33.5315 132.187 33.0949C133.111 32.6755 133.932 32.0602 134.594 31.2916L133.999 33.5154H138.408L142.432 18.5062H138.024L138.017 18.5019ZM160.94 18.507L160.943 18.5028H158.233C158.147 18.5028 158.07 18.507 157.991 18.5087H156.585L155.863 19.511L155.685 19.7489L155.608 19.8678L149.896 27.8251L148.715 18.507H144.037L146.407 32.6668L141.174 39.9124H145.838L147.103 38.1176C147.139 38.0649 147.171 38.0207 147.214 37.9647L148.692 35.8666L148.734 35.8071L155.354 26.4211L160.934 18.5215L160.943 18.5164H160.94V18.507Z" fill="black"/>
</svg>
