<svg width="84" height="21" viewBox="0 0 84 21" fill="none" xmlns="http://www.w3.org/2000/svg">
<path fill-rule="evenodd" clip-rule="evenodd" d="M51.1692 5.94445C49.8315 5.94445 48.7724 6.22222 47.7133 6.83333C47.7133 3.77778 47.7133 0.944445 47.8248 0L41.3033 1.16667V1.72222L41.9721 1.83333C42.864 2 43.1427 2.5 43.3099 3.66667C43.4771 6 43.4214 18.2778 43.3099 20.3333C45.0378 20.7222 46.8772 21 48.7167 21C53.8447 21 56.9104 17.8333 56.9104 12.8333C56.9662 8.83333 54.4579 5.94445 51.1692 5.94445ZM48.9396 19.8889C48.5494 19.8889 48.0478 19.8889 47.7691 19.7778C47.6576 18.4444 47.6019 12.7778 47.6576 7.77778C48.215 7.61111 48.6052 7.5 49.1068 7.5C51.225 7.5 52.3955 10 52.3955 13.0556C52.3955 16.9444 50.9463 19.8889 48.9396 19.8889Z" fill="#33629A"/>
<path fill-rule="evenodd" clip-rule="evenodd" d="M17.0007 0.388793H0V1.27768L0.947578 1.38879C2.2296 1.55546 2.67551 2.33324 2.89847 4.16657C3.17717 7.61102 3.06569 13.8888 2.89847 16.8888C2.73125 18.7221 2.2296 19.5555 0.947578 19.6666L0 19.8332V20.611H10.925V19.8332L9.75448 19.6666C8.47246 19.5555 8.02654 18.7221 7.80358 16.8888C7.69211 15.611 7.63636 13.611 7.63636 11.111L9.97744 11.2221C11.4267 11.2221 12.0956 12.3888 12.3743 13.9999H13.2661V7.11102H12.3743C12.0956 8.72213 11.4267 9.88879 9.97744 9.88879L7.63636 9.9999C7.63636 6.72213 7.74784 3.66657 7.80358 1.83324H11.2037C13.8235 1.83324 15.1613 3.44435 16.1088 6.33324L17.0564 6.05546L17.0007 0.388793Z" fill="#33629A"/>
<path fill-rule="evenodd" clip-rule="evenodd" d="M22.4632 5.77781C27.3126 5.77781 29.7094 9.05559 29.7094 13.3889C29.7094 17.5 27.0339 21 22.1845 21C17.3351 21 14.9383 17.7223 14.9383 13.3889C14.9383 9.22226 17.6696 5.77781 22.4632 5.77781ZM22.1845 6.72226C20.0664 6.72226 19.509 9.61115 19.509 13.3334C19.509 17 20.4565 19.9445 22.4074 19.9445C24.637 19.9445 25.1944 17.0556 25.1944 13.3334C25.1944 9.72226 24.2469 6.72226 22.1845 6.72226Z" fill="#33629A"/>
<path fill-rule="evenodd" clip-rule="evenodd" d="M58.1925 13.4445C58.1925 9.50008 60.7007 5.7223 65.6059 5.7223C69.6749 5.7223 71.57 8.7223 71.57 12.6667H62.5959C62.4844 16.2223 64.2124 18.8334 67.724 18.8334C69.2847 18.8334 70.065 18.4445 71.0126 17.7779L71.4028 18.2779C70.4552 19.6112 68.3371 20.9445 65.6059 20.9445C61.3139 21.0001 58.1925 17.889 58.1925 13.4445ZM62.6516 11.6667L67.1666 11.5556C67.1666 9.61119 66.8879 6.7223 65.2157 6.7223C63.5992 6.7223 62.7631 9.44452 62.6516 11.6667Z" fill="#33629A"/>
<path fill-rule="evenodd" clip-rule="evenodd" d="M83.1082 6.55559C81.9376 6.05559 80.4327 5.77781 78.649 5.77781C75.0816 5.77781 72.852 7.88893 72.852 10.3889C72.852 12.8889 74.4685 13.9445 76.8096 14.7223C79.2064 15.6112 79.8753 16.2778 79.8753 17.3889C79.8753 18.5556 78.9834 19.6112 77.4784 19.6112C75.639 19.6112 74.3013 18.5556 73.2422 15.6667L72.5733 15.8334L72.6848 20.0556C73.8553 20.5556 75.9735 20.9445 77.8129 20.9445C81.6032 20.9445 84 19 84 16.0556C84 14.0556 82.9409 12.8889 80.4327 11.9445C77.7571 10.8889 76.7538 10.2223 76.7538 8.94448C76.7538 7.6667 77.6457 6.83337 78.7605 6.83337C80.4884 6.83337 81.6589 7.88892 82.5508 10.5L83.2197 10.3334L83.1082 6.55559Z" fill="#33629A"/>
<path fill-rule="evenodd" clip-rule="evenodd" d="M42.2508 6.16677C40.6344 5.22232 37.7359 5.66677 36.1752 9.16677L36.2867 5.77788L29.8208 7.05566V7.61121L30.4897 7.72232C31.3816 7.83343 31.7717 8.27788 31.8275 9.55566C31.9947 11.889 31.939 15.889 31.8275 17.9445C31.716 19.1112 31.3258 19.6668 30.4897 19.7779L29.8208 19.889V20.6668H38.795V19.889L37.6244 19.7779C36.6768 19.6668 36.3424 19.1112 36.2867 17.9445C36.1194 16.1112 36.1195 12.4445 36.1752 10.1668C36.6768 9.5001 38.795 8.88899 40.6901 10.1668L42.2508 6.16677Z" fill="#33629A"/>
</svg>
