<svg width="58" height="11" viewBox="0 0 58 11" fill="none" xmlns="http://www.w3.org/2000/svg">
<path d="M0 10.6438H6.59062V8.4799H2.3855V0.224948H0V10.6438ZM9.92741 10.6438V3.46752H7.54211V10.6438H9.92741ZM8.73497 2.48789C9.56661 2.48789 10.0844 1.9368 10.0844 1.24772C10.0689 0.543641 9.56661 0.00817871 8.75081 0.00817871C7.9348 0.00817871 7.40121 0.543849 7.40121 1.24772C7.40121 1.9368 7.91896 2.48789 8.71933 2.48789H8.73497ZM11.0348 10.6438H13.4201V6.63611C13.4201 6.42163 13.4355 6.20715 13.4987 6.05437C13.6708 5.62584 14.0633 5.18188 14.7224 5.18188C15.5857 5.18188 15.9311 5.84011 15.9311 6.80431V10.6436H18.316V6.52897C18.316 4.3246 17.1392 3.2989 15.5697 3.2989C14.283 3.2989 13.7179 4.0182 13.4041 4.50823H13.4201V3.46752H11.0348C11.0663 4.14097 11.0348 10.6438 11.0348 10.6438ZM21.6811 0.224948H19.2958V10.6438H21.6811V8.31711L22.2772 7.56655L24.1448 10.6438H27.0791L23.9409 6.18902L26.6868 3.15842H23.8154C23.8154 3.15842 21.8539 5.8697 21.6811 6.19152V0.224948Z" fill="white"/>
<path d="M33.4579 7.65131C33.4894 7.46705 33.5365 7.11355 33.5365 6.71378C33.5365 4.85873 32.5948 2.97534 30.1155 2.97534C27.4634 2.97534 26.2393 5.07279 26.2393 6.97515C26.2393 9.32793 27.7302 10.7972 30.3349 10.7972C31.3709 10.7972 32.3278 10.6446 33.1127 10.323L32.7988 8.74766C32.1552 8.96109 31.4961 9.06802 30.6803 9.06802C29.5662 9.06802 28.5935 8.61051 28.5149 7.63588L33.4579 7.65089V7.65131ZM28.4993 6.03763C28.562 5.42525 28.9703 4.5217 29.9902 4.5217C31.0728 4.5217 31.3242 5.48632 31.3242 6.03763H28.4993ZM39.424 0.225917V3.83262H39.3926C39.0472 3.3278 38.3254 2.99098 37.3687 2.99098C35.5324 2.99098 33.9162 4.46042 33.9316 6.97078C33.9316 9.29771 35.3913 10.8132 37.2113 10.8132C38.2001 10.8132 39.1414 10.3843 39.6125 9.55762H39.6594L39.7538 10.6448H41.8721C41.8408 10.1396 41.8091 9.26707 41.8091 8.40979V0.225708H39.4238L39.424 0.225917ZM39.424 7.32303C39.424 7.50645 39.4084 7.69049 39.3767 7.84306C39.236 8.50171 38.671 8.96047 37.9804 8.96047C36.9921 8.96047 36.3484 8.16467 36.3484 6.9095C36.3484 5.73102 36.8981 4.78182 37.9963 4.78182C38.7337 4.78182 39.2515 5.28685 39.3928 5.91423C39.424 6.05242 39.424 6.20562 39.424 6.34319V7.32303Z" fill="white"/>
<path d="M48.9944 10.6357V3.45935H46.6091V10.6357H48.9944ZM47.8021 2.47972C48.6338 2.47972 49.1515 1.92862 49.1515 1.23996C49.1359 0.53567 48.6338 0 47.818 0C47.0016 0 46.4684 0.53567 46.4684 1.23996C46.4684 1.92862 46.9859 2.47972 47.7865 2.47972H47.8019H47.8021ZM50.3146 10.6357H52.6997V6.62855C52.6997 6.41429 52.7153 6.1996 52.7782 6.04661C52.9506 5.61787 53.3431 5.17412 54.0022 5.17412C54.8651 5.17412 55.2104 5.83214 55.2104 6.79697V10.6357H57.5955V6.521C57.5955 4.31683 56.4189 3.29114 54.8496 3.29114C53.563 3.29114 52.9979 4.01023 52.684 4.50005H52.6999V3.45955H50.3148C50.3458 4.13279 50.3146 10.6357 50.3146 10.6357Z" fill="white"/>
</svg>
