<svg width="91" height="30" viewBox="0 0 91 30" fill="none" xmlns="http://www.w3.org/2000/svg">
<path d="M11.2076 0H12.0168C14.8262 0.0606822 17.5899 1.1833 19.5748 3.17064C18.8419 3.914 18.0937 4.62702 17.3761 5.37037C16.2615 4.36912 14.9178 3.59542 13.4521 3.32235C11.2839 2.86723 8.94783 3.27684 7.13087 4.50565C5.14596 5.79515 3.80232 7.97971 3.51222 10.316C3.19158 12.6219 3.84813 15.0492 5.35972 16.8393C6.81023 18.5839 9.02418 19.6762 11.3145 19.7521C13.4521 19.8734 15.6813 19.2211 17.2387 17.7344C18.4602 16.6876 19.0251 15.0947 19.2083 13.5473C16.6737 13.5473 14.1392 13.5625 11.6046 13.5473V10.4222H22.2773C22.827 13.7749 22.033 17.5523 19.4679 19.9493C17.7578 21.6484 15.3912 22.6496 12.9787 22.8468C10.6426 23.0744 8.23021 22.6345 6.15368 21.5118C3.6649 20.192 1.67999 17.9619 0.702799 15.3374C-0.213316 12.9253 -0.228584 10.1946 0.626456 7.76732C1.40515 5.55242 2.90147 3.59542 4.82532 2.23007C6.67281 0.879892 8.9173 0.136535 11.2076 0Z" fill="#3780FF"/>
<path d="M72.4338 0.788818H75.7013V22.4524C74.6172 22.4524 73.5179 22.4675 72.4338 22.4372C72.4491 15.2312 72.4338 8.01 72.4338 0.788818Z" fill="#38B137"/>
<path d="M29.5446 8.29815C31.5601 7.91888 33.7435 8.34366 35.4078 9.54213C36.9194 10.6041 37.9729 12.2728 38.2935 14.0933C38.7058 16.202 38.1867 18.5079 36.8125 20.1767C35.3314 22.0427 32.9037 23.0439 30.5371 22.8922C28.369 22.7708 26.2619 21.6937 24.9793 19.934C23.5288 17.9921 23.1776 15.3221 23.9716 13.0465C24.7656 10.6041 27.0101 8.73809 29.5446 8.29815ZM30.0027 11.1806C29.1782 11.3929 28.4148 11.8632 27.8651 12.5307C26.3841 14.2905 26.4757 17.1577 28.1094 18.7962C29.0408 19.7367 30.4455 20.1767 31.7433 19.9188C32.9495 19.7064 34.0031 18.9024 34.5833 17.8404C35.591 16.0351 35.3009 13.5472 33.7588 12.1363C32.7663 11.2261 31.3158 10.8468 30.0027 11.1806Z" fill="#FA3913"/>
<path d="M45.7291 8.29829C48.0347 7.85834 50.554 8.49551 52.2793 10.1036C55.0888 12.6067 55.3941 17.2944 52.997 20.1768C51.5464 21.9973 49.1951 22.9985 46.8743 22.8924C44.6603 22.8317 42.4769 21.7394 41.1638 19.9341C39.6828 17.9468 39.3621 15.2161 40.2019 12.895C41.0417 10.5284 43.2403 8.72306 45.7291 8.29829ZM46.1872 11.1807C45.3627 11.3931 44.5992 11.8634 44.0496 12.5157C42.5838 14.2451 42.6449 17.0669 44.2175 18.7205C45.1489 19.7065 46.5994 20.192 47.9431 19.9189C49.134 19.6914 50.2028 18.9025 50.783 17.8406C51.7755 16.0201 51.4854 13.5321 49.928 12.1213C48.9355 11.211 47.485 10.8469 46.1872 11.1807Z" fill="#FCBD06"/>
<path d="M59.4557 9.17816C61.2116 8.08588 63.5477 7.78247 65.441 8.72305C66.0365 8.98095 66.5251 9.42089 66.9984 9.86084C67.0137 9.45123 66.9984 9.02646 67.0137 8.60168C68.0367 8.61685 69.0597 8.60168 70.0979 8.61685V21.9973C70.0827 24.015 69.5635 26.154 68.0977 27.6256C66.4945 29.2488 64.0363 29.7494 61.8224 29.4157C59.4557 29.0668 57.3945 27.3525 56.4783 25.1831C57.3945 24.7431 58.3564 24.3942 59.303 23.9846C59.8374 25.2286 60.9215 26.2905 62.2804 26.5333C63.6393 26.776 65.212 26.4422 66.0976 25.3196C67.0442 24.1667 67.0442 22.5889 66.9984 21.1781C66.296 21.8607 65.4868 22.4676 64.5096 22.6951C62.3873 23.2868 60.0512 22.5586 58.4175 21.1326C56.7685 19.7065 55.7913 17.5068 55.8829 15.3222C55.9287 12.8494 57.3334 10.4677 59.4557 9.17816ZM62.6163 11.12C61.6849 11.2717 60.8146 11.7875 60.2192 12.5005C58.7839 14.1996 58.7839 16.9151 60.2344 18.5839C61.0589 19.57 62.3873 20.1161 63.6699 19.9796C64.8761 19.8582 65.9907 19.0997 66.5862 18.0529C67.5939 16.278 67.4259 13.8659 66.067 12.3185C65.2272 11.3627 63.8836 10.8924 62.6163 11.12Z" fill="#3780FF"/>
<path d="M79.6246 9.95181C81.4568 8.25271 84.2815 7.67623 86.6329 8.57129C88.8621 9.40567 90.2821 11.5144 90.9997 13.6838C87.6864 15.0491 84.3884 16.3993 81.0751 17.7646C81.5332 18.6294 82.2355 19.4182 83.1822 19.7368C84.5105 20.2071 86.0985 20.0402 87.2131 19.1603C87.6559 18.8266 88.007 18.3866 88.343 17.9619C89.1827 18.5232 90.0225 19.0693 90.8623 19.6306C89.6713 21.4056 87.6711 22.6496 85.5183 22.8468C83.1364 23.135 80.6018 22.2248 79.0597 20.374C76.5251 17.4612 76.7694 12.5763 79.6246 9.95181ZM81.2583 12.7584C80.7392 13.5017 80.5254 14.412 80.5407 15.307C82.7547 14.3968 84.9686 13.4865 87.1825 12.5611C86.8161 11.7116 85.9305 11.1958 85.0297 11.0593C83.5792 10.8014 82.0676 11.5751 81.2583 12.7584Z" fill="#FA3913"/>
</svg>
