<svg width="84" height="23" viewBox="0 0 84 23" fill="none" xmlns="http://www.w3.org/2000/svg">
<path d="M11.5502 21.2382C10.2866 21.4601 9.0008 21.5266 7.67066 21.7038L3.61356 9.82111V22.2138C2.34995 22.3468 1.19716 22.5241 0 22.7015V0H3.36984L7.98098 12.8806V0H11.5502V21.2382ZM18.5336 8.31354C19.9082 8.31354 22.0143 8.24701 23.2779 8.24701V11.794C21.7038 11.794 19.8639 11.794 18.5336 11.8606V17.137C20.6177 17.004 22.7016 16.8265 24.8076 16.76V20.1739L14.9865 20.95V0H24.8076V3.54711H18.5336V8.31354ZM37.9983 3.5472H34.3183V19.8639C33.1211 19.8639 31.9239 19.8639 30.7713 19.9081V3.5472H27.0912V0H37.9985L37.9983 3.5472ZM43.7624 8.06974H48.6175V11.6168H43.7624V19.6644H40.2815V0H50.1916V3.54711H43.7624V8.06974ZM55.9556 16.5606C57.973 16.6048 60.0125 16.7602 61.9857 16.8709V20.3737C58.8155 20.174 55.6452 19.9748 52.4085 19.9081V0H55.9556V16.5606ZM64.9785 20.6176C66.1091 20.6842 67.3063 20.7507 68.4591 20.8835V0H64.9785V20.6176ZM84 0L79.4995 10.7965L84 22.7015C82.6697 22.5241 81.3396 22.2803 80.0093 22.0585L77.46 15.4965L74.8664 21.5266C73.5803 21.3047 72.3388 21.2382 71.0532 21.0609L75.6201 10.6634L71.4965 0H75.3094L77.6372 5.96359L80.1203 0H84Z" fill="#D81F26"/>
</svg>
