<svg width="89" height="24" viewBox="0 0 89 24" fill="none" xmlns="http://www.w3.org/2000/svg">
<path d="M24.2408 16.3337C21.7746 16.3337 20.142 14.4655 19.6865 13.7419C20.2709 9.16393 21.9809 7.71651 24.2408 7.71651C26.475 7.71651 28.2108 9.46688 28.2108 12.0251C28.2108 14.5833 26.475 16.3337 24.2408 16.3337ZM24.2408 4.90583C20.2193 4.90583 17.968 7.47247 17.3235 10.1148C16.5931 8.76841 16.0517 6.96756 15.6307 5.29293H10.071V12.0672C10.071 14.5244 8.92812 16.3421 6.69394 16.3421C4.45976 16.3421 3.17941 14.5244 3.17941 12.0672L3.20518 5.29293H0V12.0672C0 14.0448 0.653067 15.8372 1.84749 17.1163C3.07629 18.4375 4.75192 19.1275 6.69394 19.1275C10.5608 19.1275 13.259 16.2243 13.259 12.0672V7.51455C13.6628 9.01246 14.6253 11.8905 16.4641 14.4151L14.7456 24H18.0024L19.1366 17.2089C19.5061 17.5118 19.9014 17.7811 20.3224 18.0252C21.4137 18.6984 22.6597 19.0771 23.9487 19.1191C23.9487 19.1191 24.1463 19.1275 24.2494 19.1275C28.2366 19.1275 31.4073 16.1065 31.4073 12.0251C31.4073 7.94372 28.228 4.90583 24.2408 4.90583Z" fill="#18CC00"/>
<path d="M70.2908 6.74104V5.29363H67.1458V18.699H70.3338V13.448C70.3338 10.2165 70.6345 7.89393 75.0599 8.19688V5.13374C72.9976 4.98226 71.3907 5.40302 70.2908 6.74104Z" fill="#18CC00"/>
<path d="M48.1561 5.29394L45.8446 14.6685L43.3784 5.29394H39.3226L36.8478 14.6685L34.5448 5.29394H31.3138L34.8542 18.7078H38.6867L41.3505 9.18177L43.9885 18.7078H47.821L51.5676 5.29394H48.1561Z" fill="#18CC00"/>
<path d="M58.5882 16.3421C56.3196 16.3421 54.6182 14.5918 54.6182 12.0251C54.6182 9.45846 56.3283 7.71651 58.5882 7.71651C60.8224 7.71651 62.5582 9.46688 62.5582 12.0251C62.5582 14.5833 60.8224 16.3421 58.5882 16.3421ZM58.5882 4.90583C54.5752 4.90583 51.4302 7.95214 51.4302 12.0251C51.4302 16.098 54.5752 19.1191 58.5882 19.1191C62.5753 19.1191 65.7462 16.098 65.7462 12.0251C65.7462 7.95214 62.5839 4.90583 58.5882 4.90583Z" fill="#18CC00"/>
<path d="M79.6319 12.1095H80.3709L84.822 18.707H88.4225L83.301 11.3942C85.7845 10.4433 87.4515 7.96081 87.4515 5.29317H84.272C84.272 8.18802 81.9434 9.28199 79.6319 9.28199V0H76.4352V18.707H79.6232L79.6319 12.1095Z" fill="#18CC00"/>
</svg>
