<svg width="96" height="24" viewBox="0 0 96 24" fill="none" xmlns="http://www.w3.org/2000/svg">
<path d="M30.8246 9.44076C30.8246 7.7346 29.1185 5.91469 26.2749 5.91469C23.09 5.91469 19.4502 8.30332 18.8815 13.0806C18.3128 17.8578 21.2701 20.019 24.3412 20.019C27.4123 20.019 28.891 18.8815 30.4834 17.2891C29.1185 15.5829 27.2986 16.3791 26.9573 16.4929C26.6161 16.7204 26.0474 16.9479 25.1374 16.9479C24 16.9479 22.7488 16.3791 22.7488 14.218C30.2559 13.4218 30.8246 11.1469 30.8246 9.44076ZM27.1848 9.66825C27.1848 10.237 26.9573 11.1469 23.2038 11.6019C24 8.75829 25.4787 8.53081 26.1611 8.53081C26.8436 8.64455 27.1848 9.09953 27.1848 9.66825ZM14.5592 10.1232C14.5592 10.1232 12.9668 15.128 12.8531 15.5829C12.8531 15.128 11.6019 6.14218 11.6019 6.14218C8.87204 6.14218 7.39337 8.07583 6.7109 10.1232C6.7109 10.1232 4.77725 15.128 4.66351 15.5829C4.54976 15.2417 4.32228 10.237 4.32228 10.237C4.09479 7.7346 1.81991 6.14218 0 6.14218L2.27488 19.7915C5.11848 19.7915 6.7109 17.8578 7.50711 15.8104C7.50711 15.8104 9.21327 11.3744 9.32701 11.1469C9.32701 11.3744 10.5782 19.7915 10.5782 19.7915C13.4218 19.7915 15.0142 17.9716 15.8104 16.0379L19.7915 6.14218C16.8341 6.14218 15.3555 8.07583 14.5592 10.1232ZM41.4028 5.80095C39.6967 5.80095 38.3318 6.7109 37.1943 8.18957L38.1043 0C35.7156 0 33.8957 2.04739 33.4408 5.00474L31.6209 19.6777C32.9858 19.6777 34.3507 19.3365 35.1469 18.3128C35.8294 19.2227 36.8531 19.9052 38.3318 19.9052C42.3128 19.9052 45.0427 15.3555 45.0427 11.0332C45.1564 7.05213 43.2227 5.80095 41.4028 5.80095ZM40.9479 12.8531C40.4929 15.2417 39.2417 16.8341 37.8768 16.8341C36.6256 16.8341 36.0569 16.2654 36.0569 16.2654C36.2844 14.218 36.5118 12.8531 36.9668 11.7156C37.4218 10.5782 38.5592 8.87204 39.6967 8.87204C40.8341 8.98578 41.4028 10.4645 40.9479 12.8531ZM55.0521 6.14218H52.3223V6.02844C52.5498 4.20853 52.891 3.29858 54.3697 3.18483C55.2796 3.07109 55.7346 2.61611 55.8483 2.04739C55.9621 1.59242 56.1896 0.113744 56.1896 0.113744C50.6161 0.113744 48.91 2.50237 48.455 6.14218V6.25592H48.3412C47.4313 6.25592 46.4076 7.27962 46.2938 8.53081L46.1801 8.98578H48L46.4076 21.7251L45.9526 24C46.0664 24 46.0663 24 46.1801 24C48.7962 23.8863 50.3886 21.8389 50.8436 18.8815L52.0948 8.87204H53.0047C53.8009 8.87204 54.8246 8.07583 55.0521 6.59716V6.14218ZM69.3839 5.91469C66.1991 5.91469 63.2417 8.30332 62.3317 11.9431C61.4218 15.5829 62.7867 20.019 67.4502 20.019C72.1137 20.019 74.8436 15.4692 74.8436 11.7156C74.7299 7.96209 72.2275 5.91469 69.3839 5.91469ZM70.6351 12.7393C70.5213 14.4455 69.7251 16.9479 67.6777 16.9479C65.6303 16.9479 65.9716 13.9905 66.0853 12.6256C66.3128 11.1469 67.109 8.98578 68.9289 8.98578C70.6351 8.98578 70.8626 10.9194 70.6351 12.7393ZM90.5403 10.1232C90.5403 10.1232 88.9479 15.128 88.8341 15.5829C88.8341 15.128 87.5829 6.14218 87.5829 6.14218C84.8531 6.14218 83.3744 8.07583 82.6919 10.1232C82.6919 10.1232 80.7583 15.128 80.6446 15.5829C80.6446 15.2417 80.3033 10.237 80.3033 10.237C80.1896 7.7346 77.801 6.25592 75.981 6.25592L78.2559 19.9052C81.0995 19.9052 82.6919 17.9716 83.4882 15.9242C83.4882 15.9242 85.1943 11.4882 85.3081 11.2607C85.3081 11.4882 86.5592 19.9052 86.5592 19.9052C89.4028 19.9052 90.9953 18.0853 91.7915 16.1517L95.545 6.14218C92.7014 6.14218 91.2227 8.07583 90.5403 10.1232ZM57.6682 0.113744L55.3934 18.7678L54.9384 21.0427C55.0521 21.0427 55.0521 21.0427 55.1659 21.0427C57.6682 21.0427 59.4882 18.7678 59.7156 16.0379L61.0806 5.34597C61.4218 2.16114 59.3744 0.113744 57.6682 0.113744Z" fill="#1C1C1C"/>
</svg>
