<svg width="109" height="24" viewBox="0 0 109 24" fill="none" xmlns="http://www.w3.org/2000/svg">
<rect x="11" y="4" width="13" height="15" fill="white"/>
<path d="M18.1163 23.9692L10.9982 23.839C8.69346 23.7937 6.38306 23.8843 4.12363 23.4143C0.686339 22.7121 0.44284 19.2692 0.188017 16.3812C-0.163073 12.321 -0.0271676 8.18716 0.635374 4.16095C1.00912 1.90151 2.48143 0.553774 4.75785 0.406542C12.4422 -0.125756 20.1775 -0.0634658 27.8449 0.185695C28.6546 0.208346 29.4701 0.332927 30.2685 0.474496C34.2098 1.16535 34.3061 5.06699 34.5609 8.35138C34.8157 11.6698 34.7081 15.0051 34.2211 18.3008C33.8304 21.0303 33.0829 23.318 29.9288 23.5389C25.9762 23.8277 22.1142 24.0599 18.1502 23.9862C18.1502 23.9692 18.1276 23.9692 18.1163 23.9692ZM13.9315 17.0607C16.9101 15.3505 19.8321 13.6687 22.7937 11.9699C19.8094 10.2597 16.8931 8.57789 13.9315 6.87907V17.0607Z" fill="#FF0000"/>
<path d="M91.8396 20.8658C91.7037 21.4207 91.5848 21.8568 91.4659 22.3211H88.6798V0.830983H91.9302V8.75883C92.1001 8.54365 92.185 8.45304 92.2586 8.35678C92.8136 7.59231 93.5328 7.09398 94.4614 6.90145C95.9394 6.61265 97.2022 7.26386 97.6496 8.68521C97.9384 9.5686 98.1252 10.5143 98.1479 11.4373C98.1932 13.81 98.1592 16.177 98.0743 18.5497C98.0403 19.2746 97.8195 20.0164 97.542 20.6959C96.6303 22.9384 93.6517 23.2781 92.1737 21.3358C92.0831 21.2169 91.9982 21.0866 91.8396 20.8658ZM91.9981 18.8838C91.9981 19.5237 92.3379 19.9144 92.9778 20.0617C93.6064 20.2089 94.116 19.9654 94.3708 19.3821C94.4784 19.1386 94.586 18.8838 94.5917 18.629C94.654 16.228 94.7106 13.827 94.7276 11.4203C94.7276 10.973 94.62 10.5086 94.4841 10.0726C94.2293 9.28547 93.5271 9.05329 92.8362 9.51198C92.3153 9.86307 91.9981 10.3614 91.9981 11.0239V18.8838ZM83.1643 7.20724H86.5676V22.3324H83.9117C83.8155 21.7605 83.7192 21.1716 83.606 20.4807C83.4248 20.7469 83.3172 20.9168 83.2039 21.0866C82.3205 22.3608 81.069 22.7968 79.5911 22.5646C78.3283 22.3608 77.5695 21.3868 77.3996 19.7899C77.3486 19.3142 77.326 18.8329 77.326 18.3572C77.3146 14.818 77.326 11.2674 77.326 7.72821V7.19591H80.7689V7.81315C80.7689 11.2335 80.7576 14.6481 80.7802 18.0684C80.7802 18.5554 80.8312 19.0594 80.9162 19.5464C81.0124 20.0447 81.3748 20.2259 81.8618 20.1919C82.6489 20.1296 83.1926 19.5464 83.1926 18.7649V7.87544C83.1643 7.6546 83.1643 7.45074 83.1643 7.20724ZM59.7318 7.19591H63.1521V7.8358C63.1521 11.2391 63.1408 14.6368 63.1634 18.0287C63.1634 18.5157 63.2087 19.0197 63.3107 19.4954C63.4409 20.056 63.7693 20.2372 64.33 20.1636C65.1058 20.056 65.5758 19.5181 65.5814 18.7309V7.21856H68.9847V22.3324H66.3402C66.244 21.7718 66.1477 21.1942 66.0231 20.4637C65.8532 20.7186 65.757 20.8658 65.6607 21.0187C64.7773 22.3155 63.5372 22.7911 62.0252 22.5589C60.8134 22.3777 60.0716 21.483 59.8451 20.0164C59.7828 19.5577 59.7375 19.1047 59.7375 18.646C59.7261 14.9709 59.7261 11.2788 59.7261 7.60363L59.7318 7.19591ZM57.9763 15.271C57.965 15.7806 57.931 16.2903 57.9027 16.7999C57.7725 18.3289 57.7102 20.4977 56.4757 21.6133C55.6886 22.3155 54.692 22.5703 53.6613 22.6043C53.2026 22.6156 52.7383 22.6156 52.2796 22.5533C50.1108 22.2248 49.1028 21.2678 48.7404 18.8838C48.327 16.1317 48.293 13.3343 48.7857 10.5822C49.2954 7.73387 51.0508 6.7259 53.7803 6.91278C56.3285 7.09398 57.4667 8.76449 57.7668 11.1428C57.931 12.5076 58.0103 13.8893 57.9763 15.271ZM54.5107 14.75C54.5107 13.7817 54.5334 12.8077 54.4994 11.8394C54.4768 11.2788 54.4032 10.7125 54.2842 10.1575C54.1483 9.51764 53.7406 9.21185 53.231 9.22318C52.7326 9.2345 52.3816 9.54029 52.2003 10.1349C52.1381 10.3557 52.0701 10.5822 52.0701 10.8031C52.0701 12.3207 52.0588 13.844 52.0474 15.3616C52.0361 16.7773 51.8549 18.2609 52.3023 19.6143C52.4382 20.0277 52.7893 20.2542 53.248 20.2542C53.6953 20.2542 53.9898 20.0334 54.154 19.637C54.2842 19.3312 54.3975 18.9971 54.3975 18.6686C54.4371 17.3662 54.5107 16.0581 54.5107 14.75ZM43.7459 11.9017C44.046 10.435 44.3291 9.00233 44.6406 7.56399C45.0313 5.73492 45.4673 3.90586 45.8524 2.07113C45.9487 1.62377 46.1299 1.51618 46.5546 1.5275C47.4663 1.56148 48.395 1.53883 49.369 1.53883C49.0519 2.70535 48.7404 3.81525 48.4346 4.90816C47.4663 8.33979 46.498 11.7827 45.541 15.2257C45.4673 15.4918 45.4334 15.7806 45.4334 16.0638C45.422 17.9438 45.4334 19.8182 45.4334 21.6982V22.3098H42.1093C42.098 22.1399 42.0753 21.97 42.0753 21.8001C42.0753 20.7355 41.9904 19.6653 42.0867 18.612C42.3302 16.0808 41.5261 13.7534 40.8748 11.3977C40.0141 8.28316 39.142 5.15732 38.2813 2.04281C38.236 1.89558 38.219 1.73702 38.1737 1.55581H41.5657C42.2792 4.9931 42.9984 8.43039 43.7459 11.9017ZM108.783 15.8486H103.052C103.114 16.9981 103.137 18.091 103.256 19.1726C103.341 19.9258 103.754 20.2485 104.405 20.2542C105.085 20.2655 105.481 19.9258 105.64 19.1783C105.691 18.9348 105.725 18.6913 105.747 18.4421C105.77 18.2213 105.781 17.9834 105.798 17.6663C106.767 17.7173 107.712 17.7739 108.647 17.8136C109.19 19.4275 108.211 21.5 106.563 22.1399C105.266 22.6496 103.935 22.6496 102.61 22.2588C101.63 21.97 100.9 21.3471 100.572 20.3901C100.266 19.4954 99.977 18.561 99.9147 17.6267C99.7448 15.322 99.6825 12.9946 100.034 10.6842C100.096 10.2991 100.203 9.93102 100.322 9.55728C100.798 8.01701 101.834 7.07133 103.437 6.91278C104.309 6.82783 105.209 6.86181 106.07 7.00904C107.463 7.25254 108.205 8.25485 108.528 9.5686C108.675 10.1858 108.783 10.8201 108.805 11.4486C108.811 12.8926 108.783 14.3253 108.783 15.8486ZM105.526 13.861C105.526 12.7228 105.538 11.6525 105.515 10.5766C105.515 10.3217 105.419 10.0556 105.323 9.8121C105.13 9.33643 104.728 9.20619 104.247 9.20619C103.765 9.20619 103.46 9.44969 103.341 9.88572C102.978 11.1938 103.097 12.5302 103.108 13.8723C103.975 13.861 104.762 13.861 105.526 13.861Z" fill="#1C1C1C"/>
<path d="M71.6122 4.31354H68.2428V1.5841H78.2999V4.29656H74.9532V22.3098H71.6178L71.6122 4.31354Z" fill="#1C1C1C"/>
</svg>
