<svg width="84" height="19" viewBox="0 0 84 19" fill="none" xmlns="http://www.w3.org/2000/svg">
<path fill-rule="evenodd" clip-rule="evenodd" d="M68.3916 5.66065C68.7127 6.21463 68.8177 6.84491 68.8524 7.55348L68.898 8.49791V15.102L68.9446 16.0474C69.0377 17.5914 70.1764 18.7331 71.7323 18.8302L72.6728 18.8768V8.49791L72.7193 7.55348C72.758 6.85284 72.862 6.21066 73.1881 5.65272C73.5203 5.08045 73.9973 4.60565 74.571 4.276C75.1448 3.94634 75.7952 3.77344 76.4569 3.77465C77.1186 3.77585 77.7684 3.95112 78.3409 4.28286C78.9135 4.6146 79.3887 5.09114 79.7188 5.66462C80.0399 6.21859 80.14 6.86076 80.1787 7.55348L80.2252 8.49494V15.102L80.2718 16.0474C80.3689 17.5993 81.4987 18.741 83.0595 18.8302L84 18.8768V7.55348C84 5.55121 83.2048 3.63091 81.7893 2.21482C80.3737 0.798723 78.4537 0.00277301 76.4515 0.00198467C75.3798 0.000854495 74.3202 0.228435 73.3436 0.669523C72.3669 1.11061 71.4956 1.75505 70.7878 2.55978C70.0798 1.75537 69.2085 1.11108 68.2319 0.669865C67.2553 0.228647 66.1959 0.000624823 65.1242 0.000993475C63.5564 0.000993475 62.1017 0.476679 60.8966 1.29823C60.1613 0.477669 58.5162 0.000993475 57.5717 0.000993475V18.8768L58.5162 18.8302C60.0958 18.7261 61.2375 17.6152 61.2989 16.0474L61.3495 15.102V8.49791L61.396 7.55348C61.4357 6.84095 61.5348 6.21463 61.8569 5.65669C62.1894 5.08477 62.6661 4.61008 63.2394 4.28003C63.8128 3.94997 64.4627 3.77609 65.1242 3.77575C65.7863 3.77589 66.4367 3.95012 67.0102 4.28095C67.5836 4.61178 68.06 5.08759 68.3916 5.66065ZM3.77476 18.8312L4.71919 18.8768H18.8758L18.8292 17.9353C18.7014 16.3834 17.6023 15.2497 16.0454 15.1486L15.101 15.102H6.60806L17.9313 3.77476L17.8848 2.83429C17.8114 1.26651 16.6658 0.133789 15.101 0.0475706L14.1566 0.00495743L0 0.000993475L0.0465775 0.945426C0.170454 2.48248 1.28534 3.63998 2.82933 3.72917L3.77476 3.77575H12.2677L0.944433 15.103L0.99101 16.0474C1.08417 17.6033 2.20698 18.7301 3.77476 18.8302V18.8312ZM53.8664 2.76393C54.7429 3.6403 55.4382 4.68076 55.9126 5.82589C56.387 6.97102 56.6312 8.19838 56.6312 9.43789C56.6312 10.6774 56.387 11.9048 55.9126 13.0499C55.4382 14.195 54.7429 15.2355 53.8664 16.1118C52.0954 17.8813 49.6944 18.8753 47.1909 18.8753C44.6874 18.8753 42.2864 17.8813 40.5155 16.1118C36.8299 12.4263 36.8299 6.4495 40.5155 2.76393C41.3912 1.88785 42.431 1.19286 43.5753 0.718619C44.7197 0.244382 45.9462 0.000195636 47.185 2.27516e-06C48.4257 -0.000859139 49.6544 0.242897 50.8009 0.717328C51.9474 1.19176 52.989 1.88756 53.8664 2.76492V2.76393ZM51.1956 5.43668C52.2572 6.49907 52.8535 7.93949 52.8535 9.44136C52.8535 10.9432 52.2572 12.3836 51.1956 13.446C50.1332 14.5076 48.6928 15.1039 47.1909 15.1039C45.689 15.1039 44.2486 14.5076 43.1862 13.446C42.1247 12.3836 41.5283 10.9432 41.5283 9.44136C41.5283 7.93949 42.1247 6.49907 43.1862 5.43668C44.2486 4.3751 45.689 3.77878 47.1909 3.77878C48.6928 3.77878 50.1332 4.3751 51.1956 5.43668ZM27.3767 2.27516e-06C28.6155 0.000325785 29.8421 0.244668 30.9864 0.719076C32.1308 1.19348 33.1705 1.88867 34.0462 2.76492C37.7327 6.4495 37.7327 12.4273 34.0462 16.1118C32.2752 17.8813 29.8742 18.8753 27.3707 18.8753C24.8672 18.8753 22.4662 17.8813 20.6953 16.1118C17.0097 12.4263 17.0097 6.4495 20.6953 2.76393C21.571 1.88785 22.6108 1.19286 23.7551 0.718619C24.8995 0.244382 26.126 0.000195636 27.3648 2.27516e-06H27.3767ZM31.3754 5.4347C32.4373 6.49713 33.0338 7.93776 33.0338 9.43987C33.0338 10.942 32.4373 12.3826 31.3754 13.445C30.313 14.5066 28.8726 15.1029 27.3707 15.1029C25.8688 15.1029 24.4284 14.5066 23.366 13.445C22.3045 12.3827 21.7081 10.9422 21.7081 9.44036C21.7081 7.93849 22.3045 6.49808 23.366 5.43569C24.4284 4.37411 25.8688 3.77779 27.3707 3.77779C28.8726 3.77779 30.313 4.37411 31.3754 5.43569V5.4347Z" fill="#2D8CFF"/>
</svg>
